<?xml version="1.0" encoding="UTF-8"?>
<svg id="_x2014_ÎÓÈ_x5F_2" xmlns="http://www.w3.org/2000/svg" version="1.1" viewBox="0 0 1000 1000">
  <!-- Generator: Adobe Illustrator 29.4.0, SVG Export Plug-In . SVG Version: 2.1.0 Build 152)  -->
  <defs>
    <style>
      .st0 {
        fill: #3d3d3d;
      }
    </style>
  </defs>
  <g>
    <path class="st0" d="M631.3,709.27h-68.34c.58,0,1.06.47,1.06,1.06v1.06h67.28c3.1,0,5.63,2.52,5.63,5.63v6.74h1.06c.58,0,1.06.47,1.06,1.06v-7.8c0-4.27-3.47-7.74-7.74-7.74Z"/>
    <path class="st0" d="M637.99,725.87h-1.06v55.03c0,3.1-2.52,5.63-5.63,5.63h-30.7v2.12h30.7c4.27,0,7.74-3.47,7.74-7.74v-56.08c0,.58-.47,1.06-1.06,1.06Z"/>
    <path class="st0" d="M541.79,786.52c-3.1,0-5.63-2.52-5.63-5.63v-55.03h-1.06c-.5,0-.93-.35-1.03-.84-.1-.49.15-.98.61-1.19l1.48-.65v-6.18c0-2.02,1.08-3.78,2.68-4.77l-.52-.26c-.52-.27-.73-.9-.46-1.42.26-.52.9-.73,1.42-.46l2.54,1.29h20.08v-1.06c0-.58.47-1.06,1.06-1.06h-21.17c-4.27,0-7.74,3.47-7.74,7.74v63.88c0,4.27,3.47,7.74,7.74,7.74h31.63v-2.12h-31.63Z"/>
    <path class="st0" d="M561.9,724.81v-.84l-.43-.22h-21.34l11.44-5.03-2.44-1.24-12.98,5.71-1.48.65c-.46.2-.71.7-.61,1.19.1.49.54.84,1.03.84h27.86c-.58,0-1.06-.47-1.06-1.06Z"/>
    <polygon class="st0" points="554.08 717.62 561.9 714.18 561.9 711.86 551.64 716.38 554.08 717.62"/>
    <path class="st0" d="M637.99,723.75h-73.97v1.06c0,.58-.47,1.06-1.06,1.06h75.03c.58,0,1.06-.47,1.06-1.06s-.47-1.06-1.06-1.06Z"/>
    <path class="st0" d="M561.9,710.33v11.27l1.54.78c.52.27.73.9.46,1.42-.19.37-.56.58-.94.58-.16,0-.33-.04-.48-.11l-.58-.29v.84c0,.58.47,1.06,1.06,1.06s1.06-.47,1.06-1.06v-12.27h0v-2.21c0-.58-.47-1.06-1.06-1.06s-1.06.47-1.06,1.06Z"/>
    <path class="st0" d="M570.02,718.63h59.06c.58,0,1.06-.47,1.06-1.06s-.47-1.06-1.06-1.06h-59.06c-.58,0-1.06.47-1.06,1.06s.47,1.06,1.06,1.06Z"/>
    <path class="st0" d="M551.58,718.72l9.9,5.03.43.22.58.29c.15.08.32.11.48.11.39,0,.76-.21.94-.58.26-.52.06-1.16-.46-1.42l-1.54-.78-7.83-3.98-2.44-1.24-9.82-5-2.54-1.29c-.52-.27-1.16-.06-1.42.46-.27.52-.06,1.16.46,1.42l.52.26,10.3,5.24,2.44,1.24Z"/>
    <polygon class="st0" points="573.42 786.52 573.42 788.64 573.42 808.44 575.53 808.44 575.53 788.64 598.49 788.64 598.49 808.44 600.6 808.44 600.6 788.64 600.6 786.52 573.42 786.52"/>
    <path class="st0" d="M575.53,808.44h-16.62c-.58,0-1.06.47-1.06,1.06s.47,1.06,1.06,1.06h56.72c.58,0,1.06-.47,1.06-1.06s-.47-1.06-1.06-1.06h-40.1Z"/>
    <path class="st0" d="M542.48,702.11c-.02-.58-.53-1.03-1.1-1.01-4.69.19-8.48,1.94-11.29,5.21-6.92,8.06-5.39,22.47-5.32,23.08.06.54.52.94,1.05.94.04,0,.08,0,.12,0,.58-.07,1-.59.93-1.17-.01-.14-1.5-14.11,4.82-21.47,2.41-2.8,5.69-4.31,9.77-4.47.58-.02,1.04-.52,1.02-1.1Z"/>
    <path class="st0" d="M526.66,699.99c-.17-.56-.76-.87-1.32-.71-6.79,2.06-6.89,12.81-6.89,13.27,0,.58.47,1.06,1.06,1.06h0c.58,0,1.06-.47,1.06-1.05,0-.1.1-9.64,5.39-11.25.56-.17.87-.76.71-1.32Z"/>
    <path class="st0" d="M564.02,777.54c0-.58-.47-1.06-1.06-1.06h-19.04v-25.17c0-.58-.47-1.06-1.06-1.06s-1.06.47-1.06,1.06v27.29h21.16c.58,0,1.06-.47,1.06-1.06Z"/>
    <path class="st0" d="M612.9,778.59h13.83c.58,0,1.06-.47,1.06-1.06s-.47-1.06-1.06-1.06h-13.83c-.58,0-1.06.47-1.06,1.06s.47,1.06,1.06,1.06Z"/>
    <path class="st0" d="M626.74,748.04c.58,0,1.06-.47,1.06-1.06v-15.28c0-.58-.47-1.06-1.06-1.06s-1.06.47-1.06,1.06v15.28c0,.58.47,1.06,1.06,1.06Z"/>
    <path class="st0" d="M626.74,763.32c.58,0,1.06-.47,1.06-1.06v-8.07c0-.58-.47-1.06-1.06-1.06s-1.06.47-1.06,1.06v8.07c0,.58.47,1.06,1.06,1.06Z"/>
    <path class="st0" d="M745.44,825.8h-1.06v55.03c0,3.1-2.52,5.63-5.63,5.63h-30.7v2.12h30.7c4.27,0,7.74-3.47,7.74-7.74v-56.08c0,.58-.47,1.06-1.06,1.06Z"/>
    <path class="st0" d="M649.24,886.46c-3.1,0-5.63-2.52-5.63-5.63v-55.03h-1.06c-.5,0-.93-.35-1.03-.84-.1-.49.15-.98.61-1.19l1.48-.65v-6.18c0-2.02,1.08-3.78,2.68-4.77l-.51-.26c-.52-.27-.73-.9-.46-1.42.27-.52.9-.73,1.42-.46l2.54,1.29h20.08v-1.06c0-.58.47-1.06,1.06-1.06h-21.17c-4.27,0-7.74,3.47-7.74,7.74v63.88c0,4.27,3.47,7.74,7.74,7.74h31.63v-2.12h-31.63Z"/>
    <path class="st0" d="M671.47,810.26v1.06h67.28c3.1,0,5.63,2.52,5.63,5.63v6.74h1.06c.58,0,1.06.47,1.06,1.06v-7.8c0-4.27-3.47-7.74-7.74-7.74h-68.34c.58,0,1.06.47,1.06,1.06Z"/>
    <path class="st0" d="M669.36,824.75v-.84l-.43-.22h-21.33l11.44-5.03-2.44-1.24-12.98,5.71-1.48.65c-.46.2-.71.7-.61,1.19.1.49.53.84,1.03.84h27.86c-.58,0-1.06-.47-1.06-1.06Z"/>
    <polygon class="st0" points="661.53 817.55 669.36 814.11 669.36 811.8 659.09 816.32 661.53 817.55"/>
    <path class="st0" d="M745.44,823.69h-73.97v1.06c0,.58-.47,1.06-1.06,1.06h75.03c.58,0,1.06-.47,1.06-1.06s-.47-1.06-1.06-1.06Z"/>
    <path class="st0" d="M669.36,810.26v11.27l1.54.78c.52.27.73.9.46,1.42-.19.37-.56.58-.94.58-.16,0-.33-.04-.48-.11l-.58-.29v.84c0,.58.47,1.06,1.06,1.06s1.06-.47,1.06-1.06v-12.27h0v-2.21c0-.58-.47-1.06-1.06-1.06s-1.06.47-1.06,1.06Z"/>
    <path class="st0" d="M736.53,816.45h-59.06c-.58,0-1.06.47-1.06,1.06s.47,1.06,1.06,1.06h59.06c.58,0,1.06-.47,1.06-1.06s-.47-1.06-1.06-1.06Z"/>
    <path class="st0" d="M659.03,818.66l9.89,5.03.43.22.58.29c.15.08.32.11.48.11.38,0,.76-.21.94-.58.26-.52.06-1.16-.46-1.42l-1.54-.78-7.83-3.98-2.44-1.24-9.82-5-2.54-1.29c-.52-.27-1.16-.06-1.42.46-.26.52-.06,1.16.46,1.42l.51.26,10.3,5.24,2.44,1.24Z"/>
    <polygon class="st0" points="682.99 888.57 705.94 888.57 705.94 908.37 708.06 908.37 708.06 888.57 708.06 886.46 680.87 886.46 680.87 888.57 680.87 908.37 682.99 908.37 682.99 888.57"/>
    <path class="st0" d="M723.08,908.37h-56.72c-.58,0-1.06.47-1.06,1.06s.47,1.06,1.06,1.06h56.72c.58,0,1.06-.47,1.06-1.06s-.47-1.06-1.06-1.06Z"/>
    <path class="st0" d="M752.81,882.65c-.02-.58-.54-1.06-1.09-1.02-.58.02-1.04.51-1.02,1.09.33,9.99-11.88,11.12-12.4,11.17-.58.05-1.01.56-.97,1.14.05.55.51.97,1.05.97.03,0,.06,0,.09,0,.15-.01,14.74-1.33,14.34-13.35Z"/>
    <path class="st0" d="M755.88,892.49c-.54-.23-1.16.02-1.39.56-1.91,4.45-6.95,4.37-7.17,4.37,0,0-.02,0-.03,0-.57,0-1.04.45-1.06,1.02-.02.58.44,1.07,1.02,1.09.02,0,.06,0,.12,0,.95,0,6.73-.23,9.05-5.66.23-.54-.02-1.16-.56-1.39Z"/>
    <path class="st0" d="M670.41,876.41h-19.04v-25.17c0-.58-.47-1.06-1.06-1.06s-1.06.47-1.06,1.06v27.29h21.16c.58,0,1.06-.47,1.06-1.06s-.47-1.06-1.06-1.06Z"/>
    <path class="st0" d="M734.19,876.41h-13.84c-.58,0-1.06.47-1.06,1.06s.47,1.06,1.06,1.06h13.84c.58,0,1.06-.47,1.06-1.06s-.47-1.06-1.06-1.06Z"/>
    <path class="st0" d="M734.19,830.58c-.58,0-1.06.47-1.06,1.06v15.28c0,.58.47,1.06,1.06,1.06s1.06-.47,1.06-1.06v-15.28c0-.58-.47-1.06-1.06-1.06Z"/>
    <path class="st0" d="M734.19,853.07c-.58,0-1.06.47-1.06,1.06v8.07c0,.58.47,1.06,1.06,1.06s1.06-.47,1.06-1.06v-8.07c0-.58-.47-1.06-1.06-1.06Z"/>
    <path class="st0" d="M702.35,799.16c.58,0,1.06-.47,1.06-1.06v-61.04h-53.09c-.58,0-1.06.47-1.06,1.06s.47,1.06,1.06,1.06h50.97v58.92c0,.58.47,1.06,1.06,1.06Z"/>
    <path class="st0" d="M625.56,865.83h-50.98v-46.93c0-.58-.47-1.06-1.06-1.06s-1.06.47-1.06,1.06v49.04h53.09c.58,0,1.06-.47,1.06-1.06s-.47-1.06-1.06-1.06Z"/>
    <path class="st0" d="M695.06,769.54c0-.58-.47-1.06-1.06-1.06s-1.06.47-1.06,1.06v18.04c0,.58.47,1.06,1.06,1.06s1.06-.47,1.06-1.06v-18.04Z"/>
    <path class="st0" d="M694,794.57c-.58,0-1.06.47-1.06,1.06v8.65c0,.58.47,1.06,1.06,1.06s1.06-.47,1.06-1.06v-8.65c0-.58-.47-1.06-1.06-1.06Z"/>
    <path class="st0" d="M650.31,730.33h43.69c.58,0,1.06-.47,1.06-1.06s-.47-1.06-1.06-1.06h-43.69c-.58,0-1.06.47-1.06,1.06s.47,1.06,1.06,1.06Z"/>
    <path class="st0" d="M581.71,847.98c.58,0,1.06-.47,1.06-1.06v-24.63c0-.58-.47-1.06-1.06-1.06s-1.06.47-1.06,1.06v24.63c0,.58.47,1.06,1.06,1.06Z"/>
    <path class="st0" d="M581.71,859.22h38.11c.58,0,1.06-.47,1.06-1.06s-.47-1.06-1.06-1.06h-38.11c-.58,0-1.06.47-1.06,1.06s.47,1.06,1.06,1.06Z"/>
    <path class="st0" d="M665.31,760.47c0,5.58,4.54,10.12,10.12,10.12s10.12-4.54,10.12-10.12-4.54-10.12-10.12-10.12-10.12,4.54-10.12,10.12ZM683.43,760.47c0,4.41-3.59,8-8,8s-8-3.59-8-8,3.59-8,8-8,8,3.59,8,8Z"/>
    <path class="st0" d="M610.88,839.21c0-5.58-4.54-10.12-10.12-10.12s-10.12,4.54-10.12,10.12,4.54,10.12,10.12,10.12,10.12-4.54,10.12-10.12ZM592.76,839.21c0-4.41,3.59-8,8-8s8,3.59,8,8-3.59,8-8,8-8-3.59-8-8Z"/>
  </g>
  <g>
    <path class="st0" d="M498.68,549.48c0-18.89-15.37-34.26-34.26-34.26-5.46,0-10.85,1.31-15.68,3.8-5.01-21.53-24.41-37-46.66-37-20.74,0-39.23,13.54-45.57,33.14-7.43-7.12-17.12-11.01-27.46-11.01-21.94,0-39.79,17.85-39.79,39.79,0,10.02,3.74,19.6,10.53,26.96,6.75,7.32,15.92,11.82,25.8,12.67,2.46.21,4.41.21,6.86,0h12.74v-2.12h-12.79s-.06,0-.09,0c-2.36.2-4.19.2-6.55,0-19.29-1.66-34.4-18.14-34.4-37.52,0-20.77,16.9-37.67,37.67-37.67,10.36,0,20.02,4.13,27.2,11.62.26.27.65.38,1.02.29.37-.09.66-.37.76-.74,5.55-19.61,23.66-33.31,44.05-33.31,21.72,0,40.6,15.43,44.88,36.7.07.33.29.61.6.75.31.14.67.13.96-.04,4.83-2.75,10.32-4.21,15.89-4.21,17.72,0,32.14,14.42,32.14,32.14s-14.42,32.14-32.14,32.14c-.99,0-2.02-.05-3.07-.15-.03,0-.07,0-.1,0h-17.14c-.58,0-1.06.47-1.06,1.06s.47,1.06,1.06,1.06h17.09c1.1.1,2.18.15,3.22.15,18.89,0,34.26-15.37,34.26-34.26Z"/>
    <path class="st0" d="M418.6,539.94v1.06h22.02v16.53h1.06c.58,0,1.06.47,1.06,1.06v-18.65c0-.58-.47-1.06-1.06-1.06h-24.13c.58,0,1.06.47,1.06,1.06Z"/>
    <path class="st0" d="M345.19,663.33c0,.58.47,1.06,1.06,1.06h95.43c.58,0,1.06-.47,1.06-1.06v-104.75c0,.58-.47,1.06-1.06,1.06h-1.06v102.63h-93.31v-121.28h69.18v-1.06c0-.58.47-1.06,1.06-1.06h-71.3c-.58,0-1.06.47-1.06,1.06v123.4Z"/>
    <path class="st0" d="M416.49,539.94v18.65c0,.58.47,1.06,1.06,1.06h24.13c.58,0,1.06-.47,1.06-1.06s-.47-1.06-1.06-1.06h-23.07v-17.59c0-.58-.47-1.06-1.06-1.06s-1.06.47-1.06,1.06Z"/>
    <path class="st0" d="M394.5,567.28c-10.72-6.21-36.3,2.54-37.38,2.92-.55.19-.84.79-.65,1.35.19.55.79.84,1.35.65.26-.09,25.74-8.81,35.63-3.08,5.41,3.13,14.49,3.92,22.21,3.92s13.58-.72,14.09-.78c.58-.07.99-.6.92-1.18-.07-.58-.6-.99-1.18-.92-.25.03-25,2.92-34.99-2.86Z"/>
    <path class="st0" d="M429.49,590.71c-.25.03-24.99,2.92-34.99-2.87-10.72-6.2-36.3,2.54-37.38,2.92-.55.19-.84.79-.65,1.35.19.55.79.85,1.35.65.26-.09,25.74-8.81,35.63-3.08,5.41,3.13,14.49,3.92,22.21,3.92,7.41,0,13.58-.72,14.09-.78.58-.07.99-.6.92-1.18-.07-.58-.6-1-1.18-.92Z"/>
    <path class="st0" d="M429.49,611.28c-.25.03-24.99,2.92-34.99-2.87-10.72-6.2-36.3,2.54-37.38,2.92-.55.19-.84.79-.65,1.35.19.55.79.85,1.35.65.26-.09,25.74-8.81,35.63-3.08,5.41,3.13,14.49,3.92,22.21,3.92,7.41,0,13.58-.72,14.09-.78.58-.07.99-.6.92-1.18-.07-.58-.6-1-1.18-.92Z"/>
    <path class="st0" d="M429.49,631.85c-.25.03-25,2.92-34.99-2.87-10.72-6.2-36.3,2.54-37.38,2.92-.55.19-.84.79-.65,1.35.19.55.79.85,1.35.65.26-.09,25.74-8.81,35.63-3.08,5.41,3.13,14.49,3.92,22.21,3.92,7.41,0,13.58-.72,14.09-.78.58-.07.99-.6.92-1.18-.07-.58-.6-.99-1.18-.92Z"/>
    <path class="st0" d="M410.82,495.56c-.27.51-.08,1.16.44,1.43.15.08,15.01,8.15,17.32,20.11.1.51.54.86,1.04.86.07,0,.13,0,.2-.02.57-.11.95-.66.84-1.24-2.5-12.96-17.75-21.23-18.4-21.57-.52-.28-1.16-.08-1.43.44Z"/>
    <path class="st0" d="M467.31,527.38c-.58-.09-1.12.3-1.21.88-.09.58.3,1.12.88,1.21.52.09,12.87,2.22,13.37,13.26.03.57.49,1.01,1.06,1.01.02,0,.03,0,.05,0,.58-.03,1.03-.52,1.01-1.1-.58-12.78-15-15.23-15.15-15.26Z"/>
    <path class="st0" d="M481.72,557.57c-.56-.17-1.15.14-1.32.7-.72,2.32-3.29,8.61-6.48,9.78-.55.2-.83.81-.63,1.36.16.43.56.69.99.69.12,0,.24-.02.36-.06,4.82-1.77,7.66-10.75,7.78-11.14.17-.56-.14-1.15-.7-1.32Z"/>
    <path class="st0" d="M335.73,592.53v25.57c0,.58.47,1.06,1.06,1.06s1.06-.47,1.06-1.06v-25.57c0-.58-.47-1.06-1.06-1.06s-1.06.47-1.06,1.06Z"/>
    <path class="st0" d="M322.19,589.61v65.8c0,.58.47,1.06,1.06,1.06s1.06-.47,1.06-1.06v-65.8c0-.58-.47-1.06-1.06-1.06s-1.06.47-1.06,1.06Z"/>
    <path class="st0" d="M450.47,615.94v-23.41c0-.58-.47-1.06-1.06-1.06s-1.06.47-1.06,1.06v23.41c0,.58.47,1.06,1.06,1.06s1.06-.47,1.06-1.06Z"/>
    <path class="st0" d="M466.08,592.53v60.8c0,.58.47,1.06,1.06,1.06s1.06-.47,1.06-1.06v-60.8c0-.58-.47-1.06-1.06-1.06s-1.06.47-1.06,1.06Z"/>
    <path class="st0" d="M336.79,533.18c-.58,0-1.06.47-1.06,1.06v24.34c0,.58.47,1.06,1.06,1.06s1.06-.47,1.06-1.06v-23.28h24.17c.58,0,1.06-.47,1.06-1.06s-.47-1.06-1.06-1.06h-25.23Z"/>
    <path class="st0" d="M373.72,533.18c-.58,0-1.06.47-1.06,1.06s.47,1.06,1.06,1.06h16.62c.58,0,1.06-.47,1.06-1.06s-.47-1.06-1.06-1.06h-16.62Z"/>
    <path class="st0" d="M448.01,570.9v-14.62c0-.58-.47-1.06-1.06-1.06s-1.06.47-1.06,1.06v14.62c0,.58.47,1.06,1.06,1.06s1.06-.47,1.06-1.06Z"/>
  </g>
  <g>
    <path class="st0" d="M271.93,391.59v20.99c0,.58-.47,1.06-1.06,1.06h-.58v145.69H72.35v-145.69h-1.53s0,0,0,0c-.13,0-.25-.03-.37-.07-.03-.01-.06-.02-.09-.04-.05-.02-.09-.04-.13-.07v146.93c0,.58.47,1.06,1.06,1.06h200.05c.58,0,1.06-.47,1.06-1.06v-168.79c0-.58-.47-1.06-1.06-1.06h-.47c.58,0,1.06.47,1.06,1.06Z"/>
    <polygon class="st0" points="72.35 392.65 71.88 392.65 71.88 410.82 72.35 410.57 72.35 392.65"/>
    <path class="st0" d="M111.09,411.66c.51.29.69.93.4,1.44-.19.34-.55.53-.92.53h2.68c-.58,0-1.06-.47-1.06-1.06v-1.06h-1.34l.24.14Z"/>
    <path class="st0" d="M70.1,413.34s-.02-.01-.03-.02c0,0,.02.01.03.02Z"/>
    <path class="st0" d="M69.87,413.03c-.03-.07-.04-.14-.06-.2.02.07.03.14.06.2Z"/>
    <path class="st0" d="M110.04,413.49l-3.47-1.98h-31.48l-3.77,1.99c-.16.08-.32.12-.49.12h39.74c-.18,0-.36-.04-.52-.14Z"/>
    <path class="st0" d="M70.33,411.64l1.55-.82v-18.17h1.57l-.24-.14c-.51-.29-.68-.93-.4-1.44.29-.51.93-.69,1.44-.4l3.47,1.98h28.58l3.77-1.99c.51-.27,1.16-.08,1.43.44.27.52.08,1.16-.44,1.43l-.23.12h1.36v-1.06c0-.58.47-1.06,1.06-1.06h-42.42c-.58,0-1.06.47-1.06,1.06v20.99s0,.03,0,.04c-.02-.39.18-.78.56-.98Z"/>
    <path class="st0" d="M70.46,413.56s-.06-.02-.09-.04c.03.01.06.03.09.04Z"/>
    <path class="st0" d="M112.18,391.59v20.99c0,.58.47,1.06,1.06,1.06h157.63c.58,0,1.06-.47,1.06-1.06v-20.99c0-.58-.47-1.06-1.06-1.06H113.24c-.58,0-1.06.47-1.06,1.06ZM269.81,411.52H114.3v-18.87h155.51v18.87Z"/>
    <path class="st0" d="M91.46,400.48l-13.75-7.83-3.47-1.98c-.51-.29-1.15-.11-1.44.4-.29.51-.11,1.15.4,1.44l.24.14,15.8,9,2.22-1.17Z"/>
    <path class="st0" d="M110.04,413.49c.16.09.34.14.52.14,0,0,0,0,0,0,0,0,0,0,0,0,.37,0,.72-.19.92-.53.29-.51.11-1.15-.4-1.44l-.24-.14-17.2-9.8-2.22,1.17,15.14,8.63,3.47,1.98Z"/>
    <path class="st0" d="M70.46,413.56c.12.04.24.07.37.07,0,0,0,0,0,0,.17,0,.34-.04.49-.12l3.77-1.99,16.34-8.63,2.22-1.17,17.18-9.07.23-.12c.52-.27.71-.91.44-1.43-.27-.52-.91-.71-1.43-.44l-3.77,1.99-14.83,7.83-2.22,1.17-16.9,8.92-.47.25-1.55.82c-.37.2-.57.58-.56.98,0,.07.02.14.04.2.02.07.03.14.06.2,0,.01,0,.03.01.04.05.09.11.18.18.25,0,0,.02.01.03.02.04.04.09.08.14.11.04.03.09.05.13.07.03.01.06.03.09.04Z"/>
    <path class="st0" d="M123.96,403.14h131.95c.58,0,1.06-.47,1.06-1.06s-.47-1.06-1.06-1.06H123.96c-.58,0-1.06.47-1.06,1.06s.47,1.06,1.06,1.06Z"/>
    <path class="st0" d="M87.54,422.62v123.25c0,.58.47,1.06,1.06,1.06h165.44c.58,0,1.06-.47,1.06-1.06v-123.25c0-.58-.47-1.06-1.06-1.06H88.6c-.58,0-1.06.47-1.06,1.06ZM89.65,423.68h163.33v121.13H89.65v-121.13Z"/>
    <path class="st0" d="M172.38,439.68v1.03c0,.58-.47,1.06-1.06,1.06,24.52,0,44.47,19.95,44.47,44.47s-19.95,44.47-44.47,44.47-44.47-19.95-44.47-44.47,19.95-44.47,44.47-44.47c-.58,0-1.06-.47-1.06-1.06v-1.03c-25.2.57-45.53,21.23-45.53,46.56s20.9,46.59,46.59,46.59,46.59-20.9,46.59-46.59-20.33-46-45.53-46.56Z"/>
    <path class="st0" d="M171.32,518.52c17.8,0,32.28-14.48,32.28-32.28s-14.48-32.28-32.28-32.28-32.28,14.48-32.28,32.28,14.48,32.28,32.28,32.28ZM171.32,456.08c16.63,0,30.16,13.53,30.16,30.16s-13.53,30.16-30.16,30.16-30.16-13.53-30.16-30.16,13.53-30.16,30.16-30.16Z"/>
    <path class="st0" d="M190.25,504.06c.29,0,.58-.12.79-.36.32-.37.64-.74.94-1.13.36-.46.29-1.12-.17-1.49-.46-.36-1.12-.29-1.49.17-.28.35-.57.7-.87,1.04-.39.44-.35,1.11.09,1.49.2.18.45.27.7.27Z"/>
    <path class="st0" d="M144.98,486.76c.01.58.48,1.04,1.06,1.04,0,0,.02,0,.02,0,.58-.01,1.05-.5,1.04-1.08,0-.16,0-.32,0-.48,0-.29,0-.58.02-.87.02-.58-.44-1.07-1.02-1.09-.58-.02-1.07.44-1.09,1.02-.01.31-.02.63-.02.94,0,.18,0,.35,0,.53Z"/>
    <path class="st0" d="M192.99,499.33c.16.09.34.13.51.13.37,0,.74-.2.93-.55.23-.43.46-.86.67-1.31.25-.53.03-1.16-.5-1.41-.53-.25-1.16-.03-1.41.5-.2.41-.4.81-.62,1.2-.28.51-.09,1.16.42,1.44Z"/>
    <path class="st0" d="M190.57,471.52c.21.27.52.41.84.41.22,0,.45-.07.64-.22.46-.35.55-1.02.2-1.48-.3-.39-.61-.77-.92-1.14-.38-.44-1.05-.49-1.49-.11-.44.38-.49,1.05-.11,1.49.29.34.58.69.85,1.05Z"/>
    <path class="st0" d="M155.18,507.07c.19.15.42.22.65.22.32,0,.63-.14.84-.41.36-.46.27-1.13-.19-1.48-.36-.28-.7-.56-1.04-.86-.44-.38-1.11-.34-1.49.1-.38.44-.34,1.11.1,1.49.37.32.75.63,1.14.93Z"/>
    <path class="st0" d="M181.99,508c-.4.2-.81.38-1.23.56-.54.23-.79.85-.56,1.39.17.4.56.65.98.65.14,0,.28-.03.41-.08.45-.19.9-.39,1.33-.61.52-.26.74-.89.48-1.42-.26-.52-.89-.74-1.42-.48Z"/>
    <path class="st0" d="M176.91,509.82c-.44.1-.88.19-1.32.27-.58.1-.96.65-.86,1.23.09.51.54.87,1.04.87.06,0,.12,0,.19-.02.48-.09.96-.19,1.44-.3.57-.13.92-.7.79-1.27-.14-.57-.71-.92-1.27-.79Z"/>
    <path class="st0" d="M146.33,482.17c.07.01.14.02.21.02.49,0,.93-.35,1.04-.85.09-.44.19-.88.31-1.31.15-.57-.19-1.14-.75-1.29-.57-.15-1.14.19-1.29.75-.12.47-.24.95-.33,1.43-.12.57.25,1.13.82,1.25Z"/>
    <path class="st0" d="M194.73,479.94c.12.43.22.87.31,1.32.1.5.54.84,1.03.84.07,0,.15,0,.22-.02.57-.12.94-.68.82-1.25-.1-.48-.21-.96-.34-1.43-.15-.56-.73-.9-1.3-.75-.56.15-.9.73-.75,1.3Z"/>
    <path class="st0" d="M196.22,490.8c-.57-.13-1.14.23-1.26.8-.1.44-.21.88-.33,1.31-.16.56.16,1.15.73,1.31.1.03.2.04.29.04.46,0,.88-.3,1.02-.77.13-.47.26-.94.36-1.42.13-.57-.23-1.14-.8-1.26Z"/>
    <path class="st0" d="M195.53,485.27c.01.32.02.64.02.97,0,.45-.01.9-.04,1.35-.03.58.41,1.08,1,1.12.02,0,.04,0,.06,0,.56,0,1.02-.44,1.06-1,.03-.49.04-.98.04-1.47,0-.35,0-.7-.02-1.05-.02-.58-.5-1.02-1.1-1.02-.58.02-1.04.51-1.02,1.1Z"/>
    <path class="st0" d="M171.57,510.47h-.25c-.37,0-.74,0-1.11-.02-.61-.02-1.08.43-1.1,1.01-.03.58.43,1.08,1.01,1.1.4.02.8.03,1.21.03h.26c.58,0,1.05-.48,1.05-1.07,0-.58-.48-1.05-1.06-1.05Z"/>
    <path class="st0" d="M170.56,462.02s.02,0,.03,0c.45-.01.9-.01,1.35,0,.58.02,1.07-.45,1.08-1.03.01-.58-.45-1.07-1.03-1.08-.49-.01-.98-.01-1.47,0-.58.02-1.04.5-1.03,1.09.02.57.49,1.03,1.06,1.03Z"/>
    <path class="st0" d="M147.79,492.07c-.11-.43-.2-.87-.29-1.32-.11-.57-.66-.95-1.23-.85-.57.11-.95.66-.85,1.23.09.48.19.96.31,1.44.12.48.55.8,1.03.8.08,0,.17-.01.25-.03.57-.14.91-.71.77-1.28Z"/>
    <path class="st0" d="M175.97,462.45c.44.09.88.18,1.32.29.09.02.17.03.26.03.47,0,.9-.32,1.02-.8.14-.57-.2-1.14-.77-1.29-.47-.12-.95-.23-1.43-.32-.57-.11-1.13.26-1.24.84-.11.57.26,1.13.84,1.24Z"/>
    <path class="st0" d="M164.99,462.8c.09,0,.18-.01.26-.03.43-.11.87-.21,1.32-.3.57-.11.95-.67.83-1.24-.12-.57-.68-.95-1.24-.83-.48.1-.96.2-1.43.33-.57.15-.91.72-.76,1.29.12.48.55.79,1.02.79Z"/>
    <path class="st0" d="M164.32,511.65c.47.13.95.25,1.43.35.08.02.15.02.22.02.49,0,.93-.34,1.03-.84.12-.57-.24-1.13-.81-1.26-.44-.09-.88-.2-1.31-.32-.56-.15-1.15.18-1.3.74-.15.56.18,1.15.74,1.3Z"/>
    <path class="st0" d="M149.09,495.9c-.23-.54-.86-.78-1.39-.55-.54.23-.78.86-.55,1.39.2.45.4.89.62,1.33.19.37.56.58.95.58.16,0,.32-.04.48-.11.52-.26.73-.9.47-1.42-.2-.4-.39-.81-.57-1.22Z"/>
    <path class="st0" d="M181.12,464.07c.41.18.82.38,1.22.58.15.08.32.12.48.12.38,0,.75-.21.94-.58.27-.52.06-1.16-.46-1.42-.44-.22-.88-.43-1.33-.63-.54-.24-1.16,0-1.4.54-.24.53,0,1.16.54,1.4Z"/>
    <path class="st0" d="M151.17,472.01c.32,0,.63-.14.84-.42.27-.36.56-.71.85-1.05.38-.45.32-1.11-.12-1.49-.45-.38-1.11-.32-1.49.12-.32.37-.62.75-.92,1.14-.35.47-.26,1.13.2,1.48.19.15.42.22.64.22Z"/>
    <path class="st0" d="M186.08,507.84c.21,0,.43-.06.62-.2.4-.29.79-.58,1.17-.89.45-.37.52-1.03.16-1.49-.37-.45-1.03-.52-1.49-.16-.35.28-.71.56-1.07.82-.47.34-.58,1-.24,1.48.21.29.53.44.86.44Z"/>
    <path class="st0" d="M150.07,501.83c.29.4.59.78.9,1.16.21.25.51.38.82.38.24,0,.48-.08.67-.24.45-.37.51-1.04.14-1.49-.29-.35-.56-.7-.83-1.06-.35-.47-1.01-.57-1.48-.23-.47.35-.57,1.01-.23,1.48Z"/>
    <path class="st0" d="M147.85,476.75c.14.06.29.1.44.1.4,0,.79-.23.96-.62.19-.41.38-.82.59-1.21.27-.52.07-1.16-.45-1.43-.51-.27-1.16-.07-1.43.45-.23.43-.44.87-.65,1.32-.24.53,0,1.16.53,1.4Z"/>
    <path class="st0" d="M155.05,467.93c.24,0,.48-.08.68-.25.34-.29.7-.57,1.06-.84.47-.35.56-1.01.21-1.48-.35-.47-1.01-.56-1.48-.21-.39.29-.77.6-1.15.91-.45.38-.5,1.04-.13,1.49.21.25.51.38.81.38Z"/>
    <path class="st0" d="M158.87,509.47c.43.23.87.45,1.31.66.14.07.3.1.45.1.4,0,.78-.23.96-.61.25-.53.02-1.16-.51-1.41-.41-.19-.81-.39-1.21-.61-.51-.28-1.16-.08-1.43.43-.28.51-.08,1.16.43,1.43Z"/>
    <path class="st0" d="M159.74,464.81c.16,0,.33-.04.48-.12.4-.21.8-.4,1.22-.58.53-.24.77-.86.53-1.4-.24-.53-.86-.77-1.4-.53-.45.2-.89.41-1.32.64-.52.27-.72.91-.45,1.43.19.36.56.57.94.57Z"/>
    <path class="st0" d="M193.35,476.13c.18.39.56.62.96.62.15,0,.3-.03.44-.1.53-.24.76-.87.52-1.4-.2-.45-.42-.88-.65-1.32-.27-.52-.91-.71-1.43-.44-.52.27-.71.91-.44,1.43.21.4.41.8.6,1.21Z"/>
    <path class="st0" d="M186.84,467.63c.2.17.44.25.68.25.3,0,.6-.13.81-.38.37-.45.31-1.12-.13-1.49-.38-.31-.76-.62-1.15-.91-.47-.35-1.13-.25-1.48.22-.35.47-.25,1.13.22,1.48.36.27.71.55,1.06.84Z"/>
    <path class="st0" d="M166.43,475.11v14c0,.58.47,1.06,1.06,1.06h13.76c.58,0,1.06-.47,1.06-1.06s-.47-1.06-1.06-1.06h-12.7v-12.94c0-.58-.47-1.06-1.06-1.06s-1.06.47-1.06,1.06Z"/>
    <path class="st0" d="M171.32,441.76c.58,0,1.06-.47,1.06-1.06v-7.65h-2.12v7.65c0,.58.47,1.06,1.06,1.06Z"/>
    <path class="st0" d="M181,433.06c.58,0,1.06-.47,1.06-1.06s-.47-1.06-1.06-1.06h-19.37c-.58,0-1.06.47-1.06,1.06s.47,1.06,1.06,1.06h19.37Z"/>
    <path class="st0" d="M140.45,441.7c.55-.2.84-.8.64-1.35-.2-.55-.8-.84-1.35-.64-.19.07-19.44,7.17-24.19,30.93-.11.57.26,1.13.83,1.24.07.01.14.02.21.02.49,0,.94-.35,1.04-.85,4.51-22.54,22.64-29.29,22.83-29.35Z"/>
    <path class="st0" d="M224.57,507.98c-.58-.08-1.11.33-1.19.91-1.91,14-17.35,21.86-17.51,21.94-.52.26-.73.9-.47,1.42.19.37.56.59.95.59.16,0,.32-.04.47-.11.68-.34,16.6-8.43,18.66-23.55.08-.58-.33-1.11-.91-1.19Z"/>
    <path class="st0" d="M224.01,475.01c-.54.23-.79.85-.56,1.39.05.12,5.16,12.31,1.45,24.28-.17.56.14,1.15.7,1.32.1.03.21.05.31.05.45,0,.87-.29,1.01-.75,3.94-12.73-1.3-25.21-1.53-25.74-.23-.54-.85-.79-1.39-.56Z"/>
    <path class="st0" d="M58.32,573.05h33.82c.58,0,1.06-.47,1.06-1.06s-.47-1.06-1.06-1.06h-32.77v-39.16c0-.58-.47-1.06-1.06-1.06s-1.06.47-1.06,1.06v40.22c0,.58.47,1.06,1.06,1.06Z"/>
    <path class="st0" d="M250.55,382.15h28.41v25.73c0,.58.47,1.06,1.06,1.06s1.06-.47,1.06-1.06v-26.79c0-.58-.47-1.06-1.06-1.06h-29.47c-.58,0-1.06.47-1.06,1.06s.47,1.06,1.06,1.06Z"/>
  </g>
  <g>
    <path class="st0" d="M771.7,231.62h-158.85c-.58,0-1.06.47-1.06,1.06v96.53h1.06c.58,0,1.06.47,1.06,1.06v-96.53h156.74v106.16h-156.74v-9.63c0,.58-.47,1.06-1.06,1.06h-1.06v9.63c0,.58.47,1.06,1.06,1.06h158.85c.58,0,1.06-.47,1.06-1.06v-108.28c0-.58-.47-1.06-1.06-1.06Z"/>
    <path class="st0" d="M613.9,330.27c0-.58-.47-1.06-1.06-1.06h-11.76v-126.11h48.84l6.84,15.05c.17.38.55.62.96.62h87.99v8.92c0,.58.47,1.06,1.06,1.06s1.06-.47,1.06-1.06v-9.97c0-.58-.47-1.06-1.06-1.06h-88.36l-6.84-15.05c-.17-.38-.55-.62-.96-.62h-50.58c-.58,0-1.06.47-1.06,1.06v128.22c0,.58.47,1.06,1.06,1.06h12.82c.58,0,1.06-.47,1.06-1.06Z"/>
    <path class="st0" d="M701.09,243h1.41c.58,0,1.06-.47,1.06-1.06s-.47-1.06-1.06-1.06h-1.41c-.58,0-1.06.47-1.06,1.06s.47,1.06,1.06,1.06Z"/>
    <path class="st0" d="M712.37,243h1.41c.58,0,1.06-.47,1.06-1.06s-.47-1.06-1.06-1.06h-1.41c-.58,0-1.06.47-1.06,1.06s.47,1.06,1.06,1.06Z"/>
    <path class="st0" d="M706.73,243h1.41c.58,0,1.06-.47,1.06-1.06s-.47-1.06-1.06-1.06h-1.41c-.58,0-1.06.47-1.06,1.06s.47,1.06,1.06,1.06Z"/>
    <path class="st0" d="M757.5,243h1.41c.58,0,1.06-.47,1.06-1.06s-.47-1.06-1.06-1.06h-1.41c-.58,0-1.06.47-1.06,1.06s.47,1.06,1.06,1.06Z"/>
    <path class="st0" d="M689.8,243h1.41c.58,0,1.06-.47,1.06-1.06s-.47-1.06-1.06-1.06h-1.41c-.58,0-1.06.47-1.06,1.06s.47,1.06,1.06,1.06Z"/>
    <path class="st0" d="M695.44,243h1.41c.58,0,1.06-.47,1.06-1.06s-.47-1.06-1.06-1.06h-1.41c-.58,0-1.06.47-1.06,1.06s.47,1.06,1.06,1.06Z"/>
    <path class="st0" d="M684.16,243h1.41c.58,0,1.06-.47,1.06-1.06s-.47-1.06-1.06-1.06h-1.41c-.58,0-1.06.47-1.06,1.06s.47,1.06,1.06,1.06Z"/>
    <path class="st0" d="M740.58,243h1.41c.58,0,1.06-.47,1.06-1.06s-.47-1.06-1.06-1.06h-1.41c-.58,0-1.06.47-1.06,1.06s.47,1.06,1.06,1.06Z"/>
    <path class="st0" d="M746.22,243h1.41c.58,0,1.06-.47,1.06-1.06s-.47-1.06-1.06-1.06h-1.41c-.58,0-1.06.47-1.06,1.06s.47,1.06,1.06,1.06Z"/>
    <path class="st0" d="M751.86,243h1.41c.58,0,1.06-.47,1.06-1.06s-.47-1.06-1.06-1.06h-1.41c-.58,0-1.06.47-1.06,1.06s.47,1.06,1.06,1.06Z"/>
    <path class="st0" d="M723.65,243h1.41c.58,0,1.06-.47,1.06-1.06s-.47-1.06-1.06-1.06h-1.41c-.58,0-1.06.47-1.06,1.06s.47,1.06,1.06,1.06Z"/>
    <path class="st0" d="M729.29,243h1.41c.58,0,1.06-.47,1.06-1.06s-.47-1.06-1.06-1.06h-1.41c-.58,0-1.06.47-1.06,1.06s.47,1.06,1.06,1.06Z"/>
    <path class="st0" d="M718.01,243h1.41c.58,0,1.06-.47,1.06-1.06s-.47-1.06-1.06-1.06h-1.41c-.58,0-1.06.47-1.06,1.06s.47,1.06,1.06,1.06Z"/>
    <path class="st0" d="M734.93,243h1.41c.58,0,1.06-.47,1.06-1.06s-.47-1.06-1.06-1.06h-1.41c-.58,0-1.06.47-1.06,1.06s.47,1.06,1.06,1.06Z"/>
    <path class="st0" d="M633.39,243h1.41c.58,0,1.06-.47,1.06-1.06s-.47-1.06-1.06-1.06h-1.41c-.58,0-1.06.47-1.06,1.06s.47,1.06,1.06,1.06Z"/>
    <path class="st0" d="M650.31,243h1.41c.58,0,1.06-.47,1.06-1.06s-.47-1.06-1.06-1.06h-1.41c-.58,0-1.06.47-1.06,1.06s.47,1.06,1.06,1.06Z"/>
    <path class="st0" d="M678.52,243h1.41c.58,0,1.06-.47,1.06-1.06s-.47-1.06-1.06-1.06h-1.41c-.58,0-1.06.47-1.06,1.06s.47,1.06,1.06,1.06Z"/>
    <path class="st0" d="M639.03,243h1.41c.58,0,1.06-.47,1.06-1.06s-.47-1.06-1.06-1.06h-1.41c-.58,0-1.06.47-1.06,1.06s.47,1.06,1.06,1.06Z"/>
    <path class="st0" d="M622.11,243h1.41c.58,0,1.06-.47,1.06-1.06s-.47-1.06-1.06-1.06h-1.41c-.58,0-1.06.47-1.06,1.06s.47,1.06,1.06,1.06Z"/>
    <path class="st0" d="M627.75,243h1.41c.58,0,1.06-.47,1.06-1.06s-.47-1.06-1.06-1.06h-1.41c-.58,0-1.06.47-1.06,1.06s.47,1.06,1.06,1.06Z"/>
    <path class="st0" d="M644.67,243h1.41c.58,0,1.06-.47,1.06-1.06s-.47-1.06-1.06-1.06h-1.41c-.58,0-1.06.47-1.06,1.06s.47,1.06,1.06,1.06Z"/>
    <path class="st0" d="M667.24,243h1.41c.58,0,1.06-.47,1.06-1.06s-.47-1.06-1.06-1.06h-1.41c-.58,0-1.06.47-1.06,1.06s.47,1.06,1.06,1.06Z"/>
    <path class="st0" d="M672.88,243h1.41c.58,0,1.06-.47,1.06-1.06s-.47-1.06-1.06-1.06h-1.41c-.58,0-1.06.47-1.06,1.06s.47,1.06,1.06,1.06Z"/>
    <path class="st0" d="M661.6,243h1.41c.58,0,1.06-.47,1.06-1.06s-.47-1.06-1.06-1.06h-1.41c-.58,0-1.06.47-1.06,1.06s.47,1.06,1.06,1.06Z"/>
    <path class="st0" d="M655.95,243h1.41c.58,0,1.06-.47,1.06-1.06s-.47-1.06-1.06-1.06h-1.41c-.58,0-1.06.47-1.06,1.06s.47,1.06,1.06,1.06Z"/>
    <path class="st0" d="M623.9,262.6v19.23c0,.58.47,1.06,1.06,1.06h134.63c.58,0,1.06-.47,1.06-1.06v-19.23c0-.58-.47-1.06-1.06-1.06h-134.63c-.58,0-1.06.47-1.06,1.06ZM626.01,263.66h132.52v17.12h-132.52v-17.12Z"/>
    <path class="st0" d="M658.51,174.62c-.15.42-.02.89.32,1.17l32.77,27.07c.2.16.43.24.67.24s.48-.08.67-.24l32.77-27.07c.34-.28.47-.75.32-1.17-.15-.42-.55-.7-.99-.7h-23.16v-35.98c0-.58-.47-1.06-1.06-1.06h-17.1c-.58,0-1.06.47-1.06,1.06v35.98h-23.16c-.45,0-.84.28-1,.7ZM683.72,176.04c.58,0,1.06-.47,1.06-1.06v-35.98h14.98v35.98c0,.58.47,1.06,1.06,1.06h21.28l-29.83,24.64-29.83-24.64h21.28Z"/>
    <path class="st0" d="M664.48,155.04v-22.79c0-.58-.47-1.06-1.06-1.06s-1.06.47-1.06,1.06v22.79c0,.58.47,1.06,1.06,1.06s1.06-.47,1.06-1.06Z"/>
    <path class="st0" d="M634.58,137.94v47.01c0,.58.47,1.06,1.06,1.06s1.06-.47,1.06-1.06v-47.01c0-.58-.47-1.06-1.06-1.06s-1.06.47-1.06,1.06Z"/>
    <path class="st0" d="M616.75,137.94c0-.58-.47-1.06-1.06-1.06s-1.06.47-1.06,1.06v19.95c0,.58.47,1.06,1.06,1.06s1.06-.47,1.06-1.06v-19.95Z"/>
    <path class="st0" d="M615.7,168.94c-.58,0-1.06.47-1.06,1.06v17.81c0,.58.47,1.06,1.06,1.06s1.06-.47,1.06-1.06v-17.81c0-.58-.47-1.06-1.06-1.06Z"/>
    <path class="st0" d="M715.77,155.04v-22.79c0-.58-.47-1.06-1.06-1.06s-1.06.47-1.06,1.06v22.79c0,.58.47,1.06,1.06,1.06s1.06-.47,1.06-1.06Z"/>
    <path class="st0" d="M743.55,204.19v-66.25c0-.58-.47-1.06-1.06-1.06s-1.06.47-1.06,1.06v66.25c0,.58.47,1.06,1.06,1.06s1.06-.47,1.06-1.06Z"/>
    <path class="st0" d="M762.44,158.94c.58,0,1.06-.47,1.06-1.06v-19.95c0-.58-.47-1.06-1.06-1.06s-1.06.47-1.06,1.06v19.95c0,.58.47,1.06,1.06,1.06Z"/>
    <path class="st0" d="M761.38,187.8c0,.58.47,1.06,1.06,1.06s1.06-.47,1.06-1.06v-17.81c0-.58-.47-1.06-1.06-1.06s-1.06.47-1.06,1.06v17.81Z"/>
  </g>
  <g>
    <path class="st0" d="M305.82,222.25c-5.37,0-10.68,1.29-15.44,3.74-4.95-21.21-24.06-36.45-45.98-36.45-20.43,0-38.65,13.34-44.91,32.65-7.33-7-16.87-10.84-27.06-10.84-21.63,0-39.22,17.6-39.22,39.22,0,9.88,3.69,19.32,10.38,26.58,6.66,7.21,15.69,11.65,25.43,12.49,2.43.21,4.34.21,6.76,0h39.09c.58,0,1.06-.47,1.06-1.06s-.47-1.06-1.06-1.06h-39.14s-.06,0-.09,0c-2.32.2-4.13.2-6.45,0-19-1.64-33.88-17.87-33.88-36.96,0-20.46,16.65-37.11,37.11-37.11,10.2,0,19.72,4.07,26.79,11.45.26.27.65.38,1.02.29.37-.09.66-.37.76-.74,5.46-19.32,23.31-32.81,43.39-32.81,21.4,0,39.99,15.2,44.21,36.15.07.33.29.61.6.75.31.14.67.12.96-.04,4.76-2.71,10.17-4.15,15.65-4.15,17.45,0,31.65,14.2,31.65,31.66s-14.2,31.65-31.65,31.65c-.97,0-1.99-.05-3.03-.15-.03,0-.07,0-.1,0h-32.69c-.58,0-1.06.47-1.06,1.06s.47,1.06,1.06,1.06h32.64c1.08.1,2.15.15,3.18.15,18.62,0,33.77-15.15,33.77-33.77s-15.15-33.77-33.77-33.77Z"/>
    <path class="st0" d="M195.26,324.06c-.15.42-.02.89.32,1.17l43.06,35.57c.2.16.43.24.67.24s.48-.08.67-.24l43.06-35.57c.34-.28.47-.75.32-1.17-.15-.42-.55-.7-1-.7h-30.77v-57.88h30.77c.45,0,.84-.28,1-.7.15-.42.02-.89-.32-1.17l-43.06-35.57c-.39-.32-.96-.32-1.35,0l-43.06,35.57c-.34.28-.47.75-.32,1.17.15.42.55.7,1,.7h30.77v57.88h-30.77c-.45,0-.84.28-1,.7ZM228.08,325.47c.58,0,1.06-.47,1.06-1.06v-59.99c0-.58-.47-1.06-1.06-1.06h-28.89l40.12-33.14,40.12,33.14h-28.89c-.58,0-1.06.47-1.06,1.06v59.99c0,.58.47,1.06,1.06,1.06h28.89l-40.12,33.14-40.12-33.14h28.89Z"/>
    <path class="st0" d="M153.77,231.43c-.49.32-.62.98-.3,1.46.32.49.98.62,1.46.31.17-.11,16.9-10.81,32.32-.02.18.13.4.19.61.19.33,0,.66-.16.87-.45.34-.48.22-1.14-.26-1.47-16.61-11.62-34.51-.13-34.69-.02Z"/>
    <path class="st0" d="M268.97,215.8c.11.49.55.82,1.03.82.08,0,.16,0,.24-.03.57-.13.92-.7.79-1.27-1.72-7.44-15.67-13.96-16.26-14.23-.53-.25-1.16-.01-1.4.52-.24.53-.01,1.16.52,1.4,3.78,1.74,13.85,7.44,15.08,12.79Z"/>
    <path class="st0" d="M279.19,233.37c.16,0,.32-.04.47-.11.52-.26.73-.9.47-1.42l-4.32-8.65c-.26-.52-.9-.73-1.42-.47-.52.26-.73.9-.47,1.42l4.32,8.65c.19.37.56.58.95.58Z"/>
    <path class="st0" d="M328.19,259.84c.06.01.12.01.18.01.51,0,.96-.37,1.04-.88,3.35-20.11-11.9-25.44-12.06-25.5-.55-.19-1.15.11-1.34.67-.19.55.11,1.15.67,1.34.14.05,13.7,4.79,10.64,23.14-.1.58.29,1.12.87,1.22Z"/>
    <path class="st0" d="M210.53,314.46v-12.43c0-.58-.47-1.06-1.06-1.06s-1.06.47-1.06,1.06v12.43c0,.58.47,1.06,1.06,1.06s1.06-.47,1.06-1.06Z"/>
    <path class="st0" d="M191.64,318.92c.58,0,1.06-.47,1.06-1.06v-20.16c0-.58-.47-1.06-1.06-1.06s-1.06.47-1.06,1.06v20.16c0,.58.47,1.06,1.06,1.06Z"/>
    <path class="st0" d="M175.95,350.66v-52.96c0-.58-.47-1.06-1.06-1.06s-1.06.47-1.06,1.06v52.96c0,.58.47,1.06,1.06,1.06s1.06-.47,1.06-1.06Z"/>
    <path class="st0" d="M190.58,350.66c0,.58.47,1.06,1.06,1.06s1.06-.47,1.06-1.06v-10.64c0-.58-.47-1.06-1.06-1.06s-1.06.47-1.06,1.06v10.64Z"/>
    <path class="st0" d="M273.22,314.46v-12.43c0-.58-.47-1.06-1.06-1.06s-1.06.47-1.06,1.06v12.43c0,.58.47,1.06,1.06,1.06s1.06-.47,1.06-1.06Z"/>
    <path class="st0" d="M294.3,355.53v-53.5c0-.58-.47-1.06-1.06-1.06s-1.06.47-1.06,1.06v53.5c0,.58.47,1.06,1.06,1.06s1.06-.47,1.06-1.06Z"/>
    <path class="st0" d="M307.83,322c.58,0,1.06-.47,1.06-1.06v-18.91c0-.58-.47-1.06-1.06-1.06s-1.06.47-1.06,1.06v18.91c0,.58.47,1.06,1.06,1.06Z"/>
    <path class="st0" d="M306.77,353.12c0,.58.47,1.06,1.06,1.06s1.06-.47,1.06-1.06v-20.83c0-.58-.47-1.06-1.06-1.06s-1.06.47-1.06,1.06v20.83Z"/>
  </g>
  <g>
    <path class="st0" d="M825.45,717.27c.58,0,1.06-.47,1.06-1.05,0-.53-.39-.95-.9-1.03-.34.42-.7.83-1.03,1.25l.7.83h.17s0,0,0,0Z"/>
    <path class="st0" d="M904.13,713.04c.24.46.77.65,1.25.5-.42-.47-.85-.92-1.29-1.37-.11.28-.11.59.04.87Z"/>
    <path class="st0" d="M923.24,684.21c0-18.23-14.83-33.06-33.06-33.06-5.25,0-10.44,1.26-15.09,3.65-4.85-20.74-23.55-35.65-44.99-35.65-19.99,0-37.8,13.04-43.94,31.91-7.17-6.84-16.49-10.58-26.45-10.58-21.17,0-38.39,17.22-38.39,38.39,0,9.67,3.61,18.91,10.16,26.01,6.51,7.06,15.36,11.4,24.89,12.22,2.38.2,4.24.2,6.62,0l59.66.14c-.29-.69-.22-1.5.26-2.11h0s-59.96-.14-59.96-.14c-.02,0-.06,0-.09,0-2.28.19-4.03.19-6.3,0-18.57-1.6-33.12-17.47-33.12-36.13,0-20,16.27-36.27,36.27-36.27,9.97,0,19.28,3.97,26.19,11.19.26.27.65.39,1.02.29.37-.09.66-.37.76-.74,5.34-18.89,22.78-32.08,42.42-32.08,20.92,0,39.1,14.86,43.22,35.34.07.33.29.61.6.75.31.14.67.12.96-.04,4.65-2.65,9.94-4.05,15.3-4.05,17.06,0,30.94,13.88,30.94,30.94,0,11.05-5.84,21.15-15.32,26.7.5.53,1,1.04,1.48,1.59,9.89-5.98,15.96-16.64,15.96-28.29Z"/>
    <path class="st0" d="M741.45,660.14c-.49.32-.62.98-.3,1.46.2.31.54.48.89.48.2,0,.4-.06.58-.17.16-.11,16.49-10.58,31.59-.02.48.34,1.14.22,1.47-.26.33-.48.22-1.14-.26-1.47-16.26-11.38-33.78-.13-33.96-.02Z"/>
    <path class="st0" d="M900.8,664.14c.55.19,13.37,4.75,10.39,22.61-.1.58.29,1.12.87,1.22.06,0,.12.01.18.01.51,0,.96-.37,1.04-.88,3.28-19.69-11.66-24.91-11.81-24.97-.56-.19-1.15.11-1.34.67-.19.55.11,1.15.66,1.34Z"/>
    <path class="st0" d="M854.47,641.82c.2.33.55.5.9.5.19,0,.38-.05.55-.16.5-.31.65-.96.35-1.45-12.11-19.74-32.44-8.3-32.65-8.18-.51.29-.68.94-.39,1.44.29.51.94.68,1.45.39.76-.44,18.74-10.54,29.79,7.46Z"/>
    <path class="st0" d="M866.18,727.25c-11.68,0-21.15,9.47-21.15,21.15s9.47,21.15,21.15,21.15,21.15-9.47,21.15-21.15-9.47-21.15-21.15-21.15ZM866.18,767.45c-10.5,0-19.04-8.54-19.04-19.04s8.54-19.04,19.04-19.04,19.04,8.54,19.04,19.04-8.54,19.04-19.04,19.04Z"/>
    <path class="st0" d="M899.44,705.13c-.38-.29-.84-.44-1.29-.44-.49,0-.97.17-1.36.5l-11.01,9.28,2.53-14.19c.17-.98-.36-1.95-1.27-2.33-4.36-1.8-8.97-3.03-13.7-3.65-.09-.01-.18-.02-.28-.02-.88,0-1.68.55-1.99,1.4l-4.89,13.54-4.89-13.54c-.31-.85-1.11-1.4-1.99-1.4-.09,0-.18,0-.28.02-4.73.62-9.34,1.85-13.7,3.65-.92.38-1.45,1.35-1.27,2.33l2.53,14.19-11.01-9.28c-.39-.33-.88-.5-1.36-.5-.45,0-.91.15-1.29.44-3.76,2.89-7.13,6.26-10.02,10.02h0c-.48.62-.55,1.43-.26,2.11.08.19.18.38.32.54l9.28,11.01-14.19-2.53c-.12-.02-.25-.03-.37-.03-.84,0-1.62.51-1.95,1.31-1.8,4.36-3.03,8.97-3.65,13.7-.13.98.44,1.93,1.38,2.26l13.54,4.89-13.54,4.89c-.93.34-1.51,1.28-1.38,2.26.62,4.73,1.85,9.34,3.65,13.7.33.8,1.11,1.31,1.95,1.31.12,0,.25-.01.37-.03l14.19-2.53-9.28,11.01c-.64.76-.67,1.87-.06,2.65,2.89,3.76,6.26,7.13,10.02,10.02.38.29.84.44,1.29.44.49,0,.97-.17,1.36-.5l11.01-9.28-2.53,14.19c-.17.98.36,1.95,1.27,2.33,4.36,1.8,8.97,3.03,13.7,3.65.09.01.18.02.28.02.88,0,1.68-.55,1.99-1.4l4.89-13.54,4.89,13.54c.31.85,1.11,1.4,1.99,1.4.09,0,.18,0,.28-.02,4.73-.62,9.34-1.85,13.7-3.65.92-.38,1.45-1.35,1.27-2.33l-2.53-14.19,11.01,9.28c.39.33.88.5,1.36.5.45,0,.91-.15,1.29-.44,3.76-2.89,7.13-6.26,10.02-10.02.61-.79.58-1.89-.06-2.65l-9.28-11.01,14.19,2.53c.12.02.25.03.37.03.84,0,1.62-.51,1.95-1.31,1.8-4.36,3.03-8.97,3.65-13.7.13-.98-.44-1.93-1.38-2.26l-13.54-4.89,13.54-4.89c.93-.34,1.51-1.28,1.38-2.26-.62-4.73-1.85-9.34-3.65-13.7-.33-.8-1.11-1.31-1.95-1.31-.12,0-.25.01-.37.03l-14.19,2.53,9.28-11.01c.64-.76.67-1.87.06-2.65-.7-.91-1.43-1.79-2.18-2.65-.48-.55-.98-1.06-1.48-1.59-1.97-2.08-4.09-4.03-6.36-5.78ZM894.74,731.92l19.95-3.56c1.72,4.15,2.91,8.56,3.51,13.16l-19.04,6.88,19.04,6.88c-.6,4.6-1.79,9.02-3.51,13.16l-19.95-3.56,13.05,15.48c-2.78,3.61-6.02,6.85-9.63,9.64l-15.48-13.05,3.56,19.95c-4.15,1.72-8.56,2.91-13.16,3.51l-6.88-19.04-6.88,19.04c-4.6-.6-9.02-1.79-13.16-3.51l3.56-19.95-15.48,13.05c-3.61-2.78-6.85-6.02-9.64-9.63l13.05-15.48-19.95,3.56c-1.72-4.15-2.91-8.56-3.51-13.16l19.04-6.88-19.04-6.88c.6-4.6,1.79-9.02,3.51-13.16l19.95,3.56-12.35-14.65-.7-.83c.33-.43.69-.84,1.03-1.25,2.55-3.11,5.42-5.93,8.6-8.38l15.48,13.05-3.56-19.95c4.15-1.72,8.56-2.91,13.16-3.51l6.88,19.04,6.88-19.04c4.6.6,9.02,1.8,13.16,3.51l-3.56,19.95,15.48-13.05c2.12,1.63,4.09,3.44,5.93,5.36.43.45.87.9,1.29,1.37.84.94,1.65,1.9,2.41,2.9l-13.05,15.48Z"/>
  </g>
  <g>
    <path class="st0" d="M705.56,547.68c.21.39.62.6,1.04.56-.37-.4-.75-.79-1.13-1.19-.03.21-.01.43.09.63Z"/>
    <path class="st0" d="M556.03,549.84s-.06,0-.09,0c-2.41.21-4.27.21-6.68,0-19.7-1.7-35.13-18.53-35.13-38.31,0-21.21,17.26-38.47,38.47-38.47,10.58,0,20.44,4.22,27.77,11.87.26.27.65.39,1.02.29.37-.09.66-.37.76-.74,5.66-20.02,24.16-34.01,44.98-34.01,22.18,0,41.45,15.76,45.82,37.47.07.33.29.61.6.75.31.14.67.12.96-.04,4.93-2.81,10.54-4.3,16.23-4.3,18.1,0,32.82,14.72,32.82,32.82,0,11.83-6.3,22.61-16.51,28.47.5.52,1.01,1.04,1.5,1.58,10.6-6.29,17.13-17.63,17.13-30.05,0-19.26-15.67-34.94-34.94-34.94-5.58,0-11.08,1.34-16.02,3.89-5.1-21.97-24.89-37.77-47.6-37.77-21.17,0-40.03,13.83-46.5,33.84-7.59-7.27-17.47-11.26-28.04-11.26-22.38,0-40.58,18.21-40.58,40.58,0,10.22,3.82,19.99,10.74,27.5,6.89,7.46,16.23,12.05,26.32,12.92,2.52.22,4.49.22,7,0l46.37.15c.54-.72,1.09-1.42,1.66-2.11l-48.07-.16Z"/>
    <path class="st0" d="M533.3,491.74c-.49.32-.62.98-.3,1.46.32.49.98.62,1.46.31.17-.11,17.53-11.21,33.51-.02.18.13.4.19.61.19.33,0,.66-.16.87-.45.33-.48.22-1.14-.26-1.47-17.18-12.02-35.7-.14-35.89-.02Z"/>
    <path class="st0" d="M637.86,460.33c-.53-.25-1.16-.01-1.4.52-.24.53-.01,1.16.52,1.4,3.92,1.81,14.36,7.72,15.64,13.27.11.49.55.82,1.03.82.08,0,.16,0,.24-.03.57-.13.92-.7.79-1.27-1.78-7.69-16.2-14.43-16.82-14.71Z"/>
    <path class="st0" d="M662.22,493.1c.19.37.56.59.95.59.16,0,.32-.04.47-.11.52-.26.73-.9.47-1.42l-4.48-8.95c-.26-.52-.9-.73-1.42-.47-.52.26-.73.9-.47,1.42l4.48,8.95Z"/>
    <path class="st0" d="M702.01,495.87c.14.05,14.22,4.97,11.04,24.01-.1.58.29,1.12.87,1.22.06.01.12.01.18.01.51,0,.96-.37,1.04-.88,3.47-20.8-12.3-26.31-12.46-26.36-.55-.19-1.15.11-1.34.67-.18.55.11,1.15.67,1.34Z"/>
    <path class="st0" d="M657.17,662.3h0s0,0,0,0c-.2-.07-2.28-.8-5.48-2.33-22.18-1.93-41.28-14.74-51.94-33.06-.2,0-.4-.05-.57-.18-.43-.31-.54-.88-.3-1.34-5.03-9.2-7.95-19.72-8.12-30.89h-1.08c-.58,0-1.06-.47-1.06-1.06,0,37.99,30.91,68.9,68.9,68.9-.11,0-.22-.02-.33-.05,0,0,0,0-.01,0Z"/>
    <path class="st0" d="M600.69,557.21s.15.22.43.54c10.88-17.11,29.31-28.95,50.57-30.8,3.2-1.53,5.27-2.26,5.48-2.33,0,0,0,0,0,0,0,0,0,0,0,0,0,0,.01,0,.02,0,.06-.02.11-.02.17-.03.04,0,.07-.02.11-.02,0,0,.02,0,.03,0-21.52,0-40.76,9.93-53.4,25.44-.57.69-1.12,1.39-1.66,2.11-1.2,1.6-2.33,3.25-3.39,4.95.06-.06.11-.13.19-.18.49-.31,1.14-.16,1.46.33Z"/>
    <path class="st0" d="M725.36,594.52h-1.08c-.18,11.6-3.34,22.49-8.74,31.95.34.41.53.67.57.75.31.49.17,1.15-.33,1.46-.18.11-.37.16-.57.16-.32,0-.62-.15-.83-.41-10.81,17.52-29.47,29.68-51.05,31.55-3.2,1.53-5.27,2.26-5.48,2.33,0,0,0,0,0,0,0,0,0,0,0,0,0,0,0,0-.01,0-.11.03-.22.05-.33.05,37.99,0,68.9-30.91,68.9-68.9,0,.58-.47,1.06-1.06,1.06Z"/>
    <path class="st0" d="M657.53,524.56s.02,0,.03,0c.04,0,.07.01.1.02.06,0,.12.01.17.03,0,0,.01,0,.02,0,0,0,0,0,0,0h0c.2.07,2.28.8,5.48,2.33,16.47,1.43,31.25,8.86,42.13,20.1.38.39.76.79,1.13,1.19,2.71,2.94,5.15,6.12,7.3,9.5.28-.32.42-.51.43-.53.32-.49.97-.63,1.46-.31.09.06.16.14.22.22-2.19-3.52-4.68-6.83-7.46-9.89-.49-.54-.99-1.06-1.5-1.58-12.53-12.98-30.1-21.08-49.52-21.09Z"/>
    <path class="st0" d="M657.51,524.56s0,0-.01,0c0,0,0,0,.01,0s0,0,.01,0c0,0,0,0-.01,0Z"/>
    <path class="st0" d="M716.11,558.35c-.06.1-.38.57-1.05,1.28,5.69,9.64,9.03,20.83,9.21,32.78h1.08c.58,0,1.06.47,1.06,1.06,0-13.25-3.77-25.62-10.27-36.14.16.32.17.7-.04,1.02Z"/>
    <path class="st0" d="M589.67,592.4h1.08c.19-11.94,3.52-23.12,9.21-32.77-.68-.72-.99-1.19-1.06-1.29-.19-.3-.19-.64-.07-.95-6.47,10.5-10.22,22.85-10.22,36.06,0-.58.47-1.06,1.06-1.06Z"/>
    <path class="st0" d="M656.46,659.76v-1.78c-4.2-6.19-14.28-22.58-18.93-43.34-.72.07-1.42.14-2.11.22,4.66,20.97,14.75,37.58,19.15,44.1.75.33,1.38.6,1.89.81Z"/>
    <path class="st0" d="M656.46,527.16c-.51.21-1.14.47-1.89.81-4.29,6.36-14.01,22.33-18.81,42.6.69.09,1.39.17,2.11.25,4.79-20.06,14.49-35.83,18.59-41.88v-1.78Z"/>
    <path class="st0" d="M657.53,524.56s0,0-.01,0c.01,0,.02,0,.03,0,0,0,0,0,.01,0,0,0-.02,0-.03,0,0,0,0,0,0,0Z"/>
    <path class="st0" d="M637.07,612.56c-1.17-5.74-1.89-11.8-1.97-18.04h-2.11c.07,6.32.81,12.44,1.98,18.26.69-.08,1.39-.15,2.1-.22Z"/>
    <path class="st0" d="M635.28,572.66c-1.35,6.25-2.21,12.88-2.29,19.74h2.11c.08-6.77.94-13.32,2.28-19.49-.72-.08-1.41-.16-2.11-.25Z"/>
    <polygon class="st0" points="657.84 662.31 657.86 662.3 657.86 662.3 657.85 662.31 657.84 662.31"/>
    <path class="st0" d="M657.36,524.58c-.06,0-.12.01-.17.03.06-.02.11-.02.17-.03h0Z"/>
    <path class="st0" d="M657.86,524.62s0,0,0,0c0,0-.01,0-.02,0,0,0,0,0,0,0,0,0,.01,0,.02,0Z"/>
    <path class="st0" d="M612.02,567.11c-2.95,7.25-4.88,15.65-5.01,25.29h2.12c.13-9.35,2.01-17.5,4.88-24.53-.69-.25-1.35-.5-1.98-.76Z"/>
    <path class="st0" d="M613.27,617.18c-2.46-6.6-4.03-14.13-4.15-22.67h-2.12c.12,8.8,1.73,16.57,4.26,23.37.64-.24,1.3-.47,2-.7Z"/>
    <path class="st0" d="M633.41,541.37c8.3-7.14,16.68-11.41,21.15-13.4.75-.33,1.38-.6,1.89-.81v-1.54c0-.12.02-.23.06-.34,0,0,0,0,0,0,0-.01.02-.02.02-.04.04-.1.1-.2.17-.28.03-.03.06-.06.09-.09.06-.06.13-.11.2-.15.04-.02.08-.04.12-.06.02,0,.04-.03.06-.03,0,0,0,0,0,0-.2.07-2.28.8-5.48,2.33-4.81,2.29-12.17,6.39-19.6,12.77-6.72,5.77-14.18,14.11-19.22,25.39.63.26,1.29.51,1.98.77,4.87-10.87,12.08-18.92,18.56-24.5Z"/>
    <path class="st0" d="M657.85,662.31c-.11.04-.22.06-.33.06.11,0,.22-.02.33-.05h0Z"/>
    <path class="st0" d="M657.66,524.58s-.07-.02-.1-.02c0,0,0,0-.01,0,.04,0,.08.01.11.02Z"/>
    <path class="st0" d="M656.46,659.76c-.51-.21-1.14-.47-1.89-.81-4.47-1.99-12.85-6.26-21.15-13.4-6.85-5.89-14.51-14.55-19.37-26.39-.7.23-1.37.47-2.01.7,5.01,12.28,12.95,21.25,20.05,27.34,7.43,6.38,14.79,10.47,19.6,12.77,3.2,1.53,5.27,2.26,5.48,2.33,0,0,0,0,0,0-.04-.01-.08-.04-.11-.06-.05-.03-.11-.05-.16-.08-.05-.03-.08-.08-.12-.12-.04-.04-.08-.07-.11-.11-.04-.06-.07-.12-.1-.18-.02-.03-.04-.06-.05-.1,0,0,0,0,0,0-.04-.11-.06-.22-.06-.34v-1.54Z"/>
    <path class="st0" d="M677.64,572.9c1.35,6.17,2.2,12.72,2.28,19.5h2.11c-.08-6.86-.94-13.5-2.29-19.75-.69.09-1.39.17-2.1.25Z"/>
    <path class="st0" d="M680.02,612.94c1.19-5.86,1.94-12.04,2.01-18.42h-2.11c-.08,6.29-.81,12.39-2,18.17.71.08,1.41.16,2.1.25Z"/>
    <path class="st0" d="M677.47,614.79c-4.67,20.69-14.71,37.02-18.9,43.2v-44.21c-.37,0-.72-.01-1.1-.01-.35,0-.68,0-1.02,0v47.53c0,.12.02.23.06.34-.19-.55.11-1.15.65-1.34.04-.01,1.26-.45,3.3-1.35,4.38-6.5,14.43-23.03,19.1-43.92-.69-.09-1.39-.17-2.1-.25Z"/>
    <path class="st0" d="M657.17,526.62c-.55-.19-.84-.79-.65-1.34-.04.11-.06.22-.06.34v46.17c.34,0,.67,0,1.02,0,.37,0,.73,0,1.1-.01v-42.86c4.1,6.04,13.8,21.81,18.59,41.88.72-.08,1.42-.16,2.11-.25-4.8-20.27-14.52-36.24-18.81-42.6-2.03-.9-3.26-1.33-3.3-1.35Z"/>
    <path class="st0" d="M657.48,611.65c.37,0,.73,0,1.1.01v-17.14h-2.12v17.14c.34,0,.67,0,1.02,0Z"/>
    <path class="st0" d="M657.48,573.92c-.35,0-.68,0-1.02,0v18.5h2.12v-18.5c-.37,0-.72.01-1.1.01Z"/>
    <path class="st0" d="M657.84,524.62s0,0,0,0c-.06-.02-.12-.02-.17-.03-.04,0-.08-.01-.11-.02-.01,0-.02,0-.03,0,0,0,0,0-.01,0h0s-.02,0-.03,0c.12,0,.25,0,.37.05Z"/>
    <path class="st0" d="M656.9,662.16s-.08-.08-.12-.12c.04.04.07.08.12.12Z"/>
    <path class="st0" d="M657.36,524.58c-.06,0-.11.01-.17.03,0,0-.01,0-.02,0,0,0,0,0,0,0-.02,0-.04.02-.06.03.08-.03.17-.05.26-.07Z"/>
    <path class="st0" d="M657.17,662.3h0s0,0,.01,0c-.05-.02-.09-.04-.13-.06.04.02.07.05.12.06Z"/>
    <path class="st0" d="M656.79,524.86c.06-.06.13-.11.2-.15-.07.04-.14.09-.2.15Z"/>
    <path class="st0" d="M656.7,524.95c-.07.09-.13.18-.17.28.04-.11.1-.2.17-.28Z"/>
    <path class="st0" d="M656.57,661.75c.03.06.06.13.1.18-.04-.06-.07-.12-.1-.18Z"/>
    <path class="st0" d="M682.94,539.71c-7.43-6.38-14.79-10.47-19.6-12.77-3.2-1.53-5.27-2.26-5.48-2.33h0s-.01,0-.02,0c-.12-.04-.25-.06-.37-.05-.04,0-.07.01-.11.02h0c-.09.01-.17.03-.26.07-.04.02-.08.04-.12.06-.07.04-.14.09-.2.15-.03.03-.06.06-.09.09-.07.08-.13.18-.17.28,0,.01-.02.02-.02.04,0,0,0,0,0,0-.19.55.11,1.15.65,1.34.04.01,1.26.44,3.3,1.35,4.46,1.98,12.8,6.23,21.09,13.35,6.5,5.58,13.72,13.64,18.6,24.53.69-.25,1.35-.51,1.98-.77-5.03-11.27-12.5-19.61-19.21-25.37Z"/>
    <path class="st0" d="M701.02,567.85c2.87,7.03,4.75,15.19,4.88,24.55h2.12c-.13-9.65-2.06-18.06-5.02-25.31-.63.26-1.29.51-1.98.76Z"/>
    <path class="st0" d="M703.46,618.66c2.7-6.98,4.43-15.01,4.56-24.14h-2.12c-.13,8.84-1.81,16.6-4.42,23.37.69.26,1.34.52,1.97.78Z"/>
    <path class="st0" d="M657.86,662.3s0,0,0,0c.2-.07,2.28-.8,5.48-2.33,4.81-2.29,12.17-6.39,19.6-12.77,6.94-5.96,14.68-14.67,19.71-26.52-.63-.26-1.28-.52-1.97-.78-4.87,11.45-12.35,19.88-19.06,25.65-8.3,7.14-16.68,11.41-21.15,13.4-2.03.9-3.26,1.34-3.3,1.35-.55.19-.84.79-.65,1.34,0,0,0,0,0,0,.01.04.04.06.05.1.03.06.06.13.1.18.03.04.07.07.11.11.04.04.08.08.12.12.05.04.11.06.16.08.04.02.08.05.13.06.11.03.22.05.33.05s.22-.02.33-.06c0,0,0,0,.01,0Z"/>
    <path class="st0" d="M725.36,592.4h-135.69c-.58,0-1.06.47-1.06,1.06s.47,1.06,1.06,1.06h135.69c.58,0,1.06-.47,1.06-1.06s-.47-1.06-1.06-1.06Z"/>
    <path class="st0" d="M598.91,558.34c.06.1.38.58,1.06,1.29,1.57,1.66,5.09,4.65,12.05,7.47.63.26,1.29.51,1.98.76,5.23,1.91,12.18,3.67,21.28,4.79.69.09,1.39.17,2.11.25,5.55.6,11.89.96,19.07.99.34,0,.67,0,1.02,0,.37,0,.73,0,1.1-.01,7.18-.03,13.51-.4,19.07-1,.72-.08,1.41-.16,2.1-.25,9.1-1.13,16.05-2.89,21.28-4.8.69-.25,1.35-.5,1.98-.76,6.96-2.82,10.49-5.81,12.05-7.47.67-.71.98-1.18,1.05-1.28.2-.32.2-.7.04-1.02-.04-.08-.08-.15-.14-.21-.07-.08-.13-.16-.22-.22-.49-.31-1.14-.17-1.46.31-.01.02-.15.21-.43.53-1.07,1.21-4.34,4.34-11.75,7.35-.63.26-1.29.51-1.98.77-5.11,1.86-11.92,3.6-20.89,4.72-.69.09-1.39.17-2.11.25-5.41.59-11.59.94-18.59.98-.37,0-.72.01-1.1.01-.35,0-.68,0-1.02,0-7-.03-13.18-.39-18.59-.97-.72-.08-1.42-.16-2.11-.25-8.98-1.11-15.79-2.84-20.89-4.71-.69-.25-1.35-.51-1.98-.77-7.41-3-10.68-6.13-11.75-7.35-.28-.32-.42-.52-.43-.54-.31-.49-.96-.64-1.46-.33-.08.05-.13.12-.19.18-.1.1-.17.21-.22.34-.12.3-.11.65.07.95Z"/>
    <path class="st0" d="M703.46,618.66c-.63-.26-1.28-.52-1.97-.78-5.24-1.96-12.23-3.78-21.47-4.94-.69-.09-1.38-.17-2.1-.25-5.62-.62-12.04-1-19.35-1.04-.37,0-.72-.01-1.1-.01-.35,0-.68,0-1.02,0-7.32.03-13.75.36-19.38.9-.71.07-1.41.14-2.1.22-9.39,1.03-16.45,2.66-21.7,4.41-.7.23-1.37.47-2,.7-9.32,3.44-12.12,7.09-12.32,7.38-.03.04-.04.09-.06.14-.24.46-.13,1.03.3,1.34.17.13.37.17.57.18.34.02.69-.12.91-.42.05-.07,2.61-3.39,11.38-6.63.64-.23,1.31-.47,2.01-.7,5.13-1.7,12.06-3.3,21.37-4.31.69-.08,1.39-.15,2.11-.22,5.5-.53,11.78-.84,18.93-.87.34,0,.67,0,1.02,0,.37,0,.73,0,1.1.01,7.14.04,13.41.41,18.9,1.02.71.08,1.41.16,2.1.25,9.13,1.15,15.99,2.96,21.1,4.87.69.26,1.35.52,1.97.78,8.95,3.73,11.63,7.59,11.68,7.66.02.03.04.05.06.08.21.26.51.41.83.41.19,0,.39-.05.57-.16.49-.31.64-.97.33-1.46-.05-.07-.23-.34-.57-.75-1.22-1.44-4.6-4.7-12.07-7.81Z"/>
  </g>
  <g>
    <path class="st0" d="M523.02,330.97h-1.06v9.19c0,.58.47,1.06,1.06,1.06s1.06-.47,1.06-1.06v-10.24c0,.58-.47,1.06-1.06,1.06Z"/>
    <path class="st0" d="M425.83,425.85v-1.98h40.06v1.87h3.64c.58-.01,1.06-.49,1.05-1.07,0-.58-.48-1.05-1.06-1.05h0l-92.12.25c-5,0-9.06-4.07-9.06-9.06v-83.83h-1.06c-.5,0-.93-.35-1.04-.84-.1-.49.15-.98.61-1.19l1.48-.65v-10.18c0-3.36,1.84-6.28,4.55-7.85l-.49-.25c-.52-.26-.73-.9-.46-1.42.27-.52.9-.73,1.42-.46l2.19,1.12c.6-.12,1.22-.19,1.85-.19h30.99v-1.06c0-.58.47-1.06,1.06-1.06h-32.04c-6.16,0-11.18,5.01-11.18,11.18v96.7c0,6.16,5.01,11.18,11.18,11.18l48.41-.13Z"/>
    <path class="st0" d="M410.51,307.99v1.06h102.38c5,0,9.06,4.07,9.06,9.06v10.75h1.06c.58,0,1.06.47,1.06,1.06v-11.81c0-6.16-5.01-11.18-11.18-11.18h-103.44c.58,0,1.06.47,1.06,1.06Z"/>
    <path class="st0" d="M408.4,329.91v-1.06h-36.08l19.92-8.76-2.44-1.24-21.45,9.44-1.48.65c-.46.2-.71.7-.61,1.19.1.49.54.84,1.04.84h42.16c-.58,0-1.06-.47-1.06-1.06Z"/>
    <polygon class="st0" points="394.74 318.99 408.4 312.98 408.4 310.67 392.3 317.75 394.74 318.99"/>
    <path class="st0" d="M523.02,328.86h-112.5v1.06c0,.58-.47,1.06-1.06,1.06h113.56c.58,0,1.06-.47,1.06-1.06s-.47-1.06-1.06-1.06Z"/>
    <path class="st0" d="M408.4,307.99v17.95l1.54.78c.52.26.73.9.46,1.42-.19.37-.56.58-.94.58-.16,0-.33-.04-.48-.12l-.58-.29v1.6c0,.58.47,1.06,1.06,1.06s1.06-.47,1.06-1.06v-18.57h0v-3.36c0-.58-.47-1.06-1.06-1.06s-1.06.47-1.06,1.06Z"/>
    <path class="st0" d="M509.53,317.89h-89.39c-.58,0-1.06.47-1.06,1.06s.47,1.06,1.06,1.06h89.39c.58,0,1.06-.47,1.06-1.06s-.47-1.06-1.06-1.06Z"/>
    <path class="st0" d="M392.24,320.09l16.16,8.22.58.29c.15.08.32.12.48.12.38,0,.76-.21.94-.58.27-.52.06-1.16-.46-1.42l-1.54-.78-13.66-6.95-2.44-1.24-16.74-8.52-2.19-1.12c-.52-.26-1.16-.06-1.42.46-.27.52-.06,1.16.46,1.42l.49.25,16.9,8.6,2.44,1.24Z"/>
    <polygon class="st0" points="425.83 423.87 425.83 425.85 425.83 457.04 427.94 457.04 427.94 425.98 463.77 425.98 463.77 457.04 465.89 457.04 465.89 425.74 465.89 423.87 425.83 423.87"/>
    <path class="st0" d="M427.94,457.04h-24.62c-.58,0-1.06.47-1.06,1.06s.47,1.06,1.06,1.06h85.86c.58,0,1.06-.47,1.06-1.06s-.47-1.06-1.06-1.06h-61.24Z"/>
    <path class="st0" d="M377.91,295.58c-.02-.58-.55-1.03-1.1-1.01-6.93.28-12.55,2.87-16.7,7.7-10.32,12.03-8.02,33.6-7.92,34.52.06.54.52.94,1.05.94.04,0,.08,0,.12,0,.58-.07,1-.59.93-1.17-.02-.21-2.3-21.57,7.42-32.9,3.75-4.37,8.85-6.71,15.18-6.96.58-.02,1.04-.52,1.01-1.1Z"/>
    <path class="st0" d="M353.99,292.5c-.17-.56-.76-.87-1.32-.71-9.89,3-10.04,18.89-10.04,19.56,0,.58.47,1.06,1.06,1.06h0c.58,0,1.06-.47,1.06-1.05,0-.15.14-14.99,8.54-17.54.56-.17.87-.76.71-1.32Z"/>
    <path class="st0" d="M481.06,372s.15.21.43.52c7.57-11.79,20.14-20.07,34.69-21.83,3.14-1.6,5.27-2.36,5.45-2.42,0,0,0,0,0,0h0s.01,0,.02,0c.05-.02.11-.02.17-.03,0,0,0,0,0,0,.03,0,.06-.02.1-.02,0,0,.02,0,.03,0-17.94,0-33.7,9.48-42.58,23.67.07-.07.13-.15.22-.21.49-.31,1.14-.17,1.45.32Z"/>
    <path class="st0" d="M522.14,348.23c.06,0,.12.01.18.03,0,0,.01,0,.02,0,0,0,0,0,0,0h0c.18.06,2.31.82,5.45,2.42,14.55,1.76,27.12,10.03,34.69,21.82.29-.31.42-.5.43-.51.32-.48.97-.62,1.46-.31.1.07.18.15.25.24-8.87-14.22-24.65-23.71-42.61-23.72,0,0,.02,0,.03,0,.03,0,.07.01.1.02Z"/>
    <path class="st0" d="M472.84,397.37h1.08c.18-8.35,2.5-16.18,6.43-22.97-.71-.7-1.02-1.17-1.07-1.26-.2-.32-.19-.69-.05-1-4.72,7.65-7.45,16.66-7.45,26.29,0-.58.47-1.06,1.06-1.06Z"/>
    <path class="st0" d="M522,348.21s0,0-.01,0c0,0,0,0-.01,0,0,0,0,0,.01,0,0,0,0,0,.01,0Z"/>
    <path class="st0" d="M564.69,373.14c-.06.09-.37.55-1.07,1.25,3.94,6.79,6.26,14.63,6.44,22.98h1.08c.58,0,1.06.47,1.06,1.06,0-9.66-2.75-18.69-7.49-26.35.18.33.2.73-.02,1.07Z"/>
    <path class="st0" d="M571.15,399.48h-1.08c-.18,8.1-2.36,15.72-6.08,22.36.45.49.67.81.71.88.31.49.17,1.15-.33,1.46-.18.11-.37.16-.57.16-.35,0-.69-.17-.89-.49,0,0-.03-.04-.06-.09-7.53,12.09-20.27,20.6-35.05,22.39-3.14,1.6-5.27,2.36-5.45,2.42h0s0,0,0,0c0,0,0,0-.01,0-.1.03-.22.05-.33.06,27.69,0,50.21-22.53,50.21-50.21,0,.58-.47,1.06-1.06,1.06Z"/>
    <path class="st0" d="M521.65,448.58s0,0,0,0h0c-.18-.06-2.31-.82-5.45-2.42-15.15-1.83-28.15-10.72-35.6-23.29-.33.14-.72.13-1.04-.1-.47-.34-.58-1-.24-1.48.02-.03.1-.13.23-.28-3.45-6.45-5.46-13.77-5.63-21.54h-1.08c-.58,0-1.06-.47-1.06-1.06,0,27.69,22.52,50.21,50.21,50.21-.11,0-.22-.02-.33-.06,0,0,0,0-.01,0Z"/>
    <path class="st0" d="M507.42,411.95c-.79-3.98-1.29-8.16-1.37-12.47h-2.11c.07,4.38.58,8.64,1.38,12.69.68-.08,1.38-.15,2.1-.22Z"/>
    <path class="st0" d="M520.93,350.83c-.52.22-1.15.5-1.9.85-3.33,5.08-9.73,16.09-13.03,29.84.69.09,1.39.17,2.11.25,3.29-13.53,9.65-24.32,12.82-29.13v-1.81Z"/>
    <path class="st0" d="M520.93,446.02v-1.81c-3.26-4.93-9.86-16.16-13.07-30.19-.72.07-1.42.14-2.11.21,3.22,14.26,9.87,25.72,13.28,30.93.75.35,1.38.63,1.9.85Z"/>
    <path class="st0" d="M505.53,383.6c-.93,4.37-1.51,8.99-1.59,13.76h2.11c.08-4.69.67-9.23,1.59-13.52-.72-.08-1.42-.16-2.11-.25Z"/>
    <path class="st0" d="M521.67,348.26c.05-.02.11-.02.17-.03-.06,0-.11.01-.17.03Z"/>
    <path class="st0" d="M522.02,348.22s0,0,.01,0c0,0-.02,0-.03,0,0,0,0,0,0,0,0,0,0,0-.01,0,.01,0,.02,0,.03,0Z"/>
    <path class="st0" d="M522.33,348.27s-.01,0-.02,0c0,0,0,0,0,0,0,0,.01,0,.02,0,0,0,0,0,0,0Z"/>
    <polygon class="st0" points="522.32 448.58 522.33 448.58 522.33 448.58 522.32 448.58 522.32 448.58"/>
    <path class="st0" d="M490.13,415.25c-1.7-4.64-2.77-9.88-2.89-15.77h-2.11c.12,6.18,1.25,11.66,3,16.47.63-.24,1.28-.47,2-.7Z"/>
    <path class="st0" d="M488.65,379.48c-2.06,5.15-3.39,11.1-3.52,17.89h2.11c.13-6.46,1.4-12.15,3.41-17.12-.7-.25-1.37-.51-2-.77Z"/>
    <path class="st0" d="M519.03,351.68c.75-.35,1.39-.63,1.9-.85v-1.56c0-.12.02-.23.06-.34,0,0,0,0,0,0,0-.02.02-.03.02-.04.04-.1.1-.2.16-.28.03-.03.06-.06.09-.09.06-.06.13-.11.2-.15.04-.02.07-.04.11-.06.02,0,.04-.03.07-.03,0,0,0,0,0,0-.18.06-2.31.82-5.45,2.42-3.44,1.75-8.1,4.53-12.81,8.57-4.84,4.16-10.21,10.16-13.87,18.24.62.26,1.27.51,1.98.76,7.1-15.46,21.15-23.57,27.54-26.59Z"/>
    <path class="st0" d="M522.04,348.22s0,0-.01,0c.04,0,.07.01.11.02-.03,0-.06-.02-.1-.02Z"/>
    <path class="st0" d="M520.93,446.02c-.52-.22-1.15-.49-1.9-.85-6.58-3.1-21.26-11.6-28.14-27.96-.72.23-1.39.47-2.02.7,3.66,8.82,9.38,15.28,14.5,19.68,4.71,4.04,9.37,6.82,12.81,8.57,3.14,1.6,5.27,2.36,5.45,2.42h0s-.07-.04-.1-.05c-.06-.03-.12-.05-.17-.09-.04-.03-.08-.07-.12-.11-.04-.04-.08-.07-.11-.11-.04-.06-.07-.12-.1-.19-.02-.03-.04-.06-.05-.1,0,0,0,0,0,0-.04-.11-.06-.22-.06-.34v-1.56Z"/>
    <path class="st0" d="M522.32,448.58c-.11.04-.22.06-.33.06,0,0,0,0,0,0,.11,0,.22-.02.33-.06,0,0,0,0,0,0Z"/>
    <path class="st0" d="M521.64,350.27c-.55-.19-.84-.79-.66-1.34-.04.11-.06.22-.06.34v33.16c.35,0,.68,0,1.03,0,.37,0,.72,0,1.08-.01v-29.8c3.17,4.81,9.53,15.6,12.82,29.13.72-.08,1.42-.16,2.11-.25-3.3-13.76-9.71-24.76-13.04-29.84-1.99-.94-3.24-1.38-3.3-1.41Z"/>
    <path class="st0" d="M538.64,412.29c.82-4.09,1.33-8.38,1.4-12.81h-2.11c-.07,4.34-.58,8.55-1.39,12.56.72.08,1.41.16,2.1.25Z"/>
    <path class="st0" d="M536.09,414.13c-3.22,13.98-9.8,25.16-13.04,30.09v-30.78c-.36,0-.71-.01-1.08-.01s-.68,0-1.03,0v34.15c0,.12.02.23.06.34-.19-.55.1-1.15.65-1.34.06-.02,1.32-.47,3.31-1.41,3.4-5.2,10.02-16.6,13.25-30.79-.68-.09-1.39-.17-2.11-.25Z"/>
    <path class="st0" d="M536.34,383.85c.92,4.29,1.51,8.83,1.59,13.52h2.11c-.08-4.78-.66-9.4-1.59-13.77-.69.09-1.39.17-2.11.25Z"/>
    <path class="st0" d="M522.32,348.27s0,0,0,0c-.06-.02-.12-.02-.18-.03-.04,0-.07-.01-.11-.02-.01,0-.02,0-.03,0,0,0,0,0-.01,0,0,0,0,0,0,0,0,0-.02,0-.03,0,.12,0,.25,0,.37.05Z"/>
    <path class="st0" d="M521.96,411.31c.37,0,.72,0,1.08.01v-11.84h-2.12v11.84c.35,0,.68,0,1.03,0Z"/>
    <path class="st0" d="M521.96,384.56c-.35,0-.68,0-1.03-.01v12.82h2.12v-12.82c-.36,0-.71.01-1.08.01Z"/>
    <path class="st0" d="M521.65,448.58s0,0,0,0c0,0,0,0,.01,0-.04-.01-.08-.04-.12-.06.04.02.07.04.1.05Z"/>
    <path class="st0" d="M521.37,448.43s-.08-.07-.12-.11c.04.04.07.08.12.11Z"/>
    <path class="st0" d="M521.27,348.52c.06-.06.13-.11.2-.15-.07.04-.14.09-.2.15Z"/>
    <path class="st0" d="M521.84,348.23s0,0,0,0c-.06,0-.11.01-.17.03,0,0-.01,0-.02,0h0s-.04.03-.07.04c.08-.04.17-.06.26-.07Z"/>
    <path class="st0" d="M521.18,348.6c-.07.08-.12.18-.16.28.04-.1.1-.2.16-.28Z"/>
    <path class="st0" d="M521.04,448.02c.03.06.06.13.1.19-.04-.06-.07-.12-.1-.19Z"/>
    <path class="st0" d="M540.6,359.26c-4.71-4.04-9.37-6.82-12.81-8.57-3.14-1.6-5.27-2.36-5.45-2.42h0s-.01,0-.02,0c-.12-.04-.25-.06-.37-.05-.03,0-.07.01-.1.02-.09.01-.18.03-.26.07-.04.02-.08.04-.11.06-.07.04-.14.09-.2.15-.03.03-.06.06-.09.09-.07.08-.12.18-.16.28,0,.02-.02.03-.02.04,0,0,0,0,0,0-.18.55.11,1.15.66,1.34.06.02,1.31.47,3.3,1.41,6.39,3.01,20.45,11.11,27.55,26.58.7-.25,1.35-.51,1.97-.76-3.66-8.08-9.03-14.08-13.87-18.23Z"/>
    <path class="st0" d="M555.64,416.53c1.88-4.95,3.09-10.62,3.22-17.05h-2.11c-.12,6.09-1.26,11.51-3.07,16.27.7.26,1.35.52,1.97.78Z"/>
    <path class="st0" d="M553.33,380.23c2.01,4.97,3.28,10.67,3.41,17.13h2.11c-.13-6.79-1.46-12.75-3.53-17.9-.62.26-1.29.51-1.99.77Z"/>
    <path class="st0" d="M522.32,448.58s0,0,.01,0h0c.18-.06,2.31-.82,5.45-2.42,3.44-1.75,8.1-4.53,12.81-8.57,5-4.3,10.57-10.57,14.23-19.07-.62-.26-1.28-.52-1.98-.78-6.97,16-21.39,24.35-27.9,27.43-1.99.94-3.24,1.39-3.31,1.41-.55.19-.84.79-.65,1.34,0,0,0,0,0,0,.01.04.04.06.05.1.03.06.06.13.1.19.03.04.07.08.11.11.04.04.07.08.12.11.05.04.11.06.17.09.04.02.07.04.12.06.1.03.22.05.33.06h0c.11,0,.22-.02.33-.06Z"/>
    <path class="st0" d="M571.15,397.37h-98.31c-.58,0-1.06.47-1.06,1.06s.47,1.06,1.06,1.06h98.31c.58,0,1.06-.47,1.06-1.06s-.47-1.06-1.06-1.06Z"/>
    <path class="st0" d="M479.28,373.14c.06.09.37.56,1.07,1.26,1.25,1.24,3.75,3.21,8.3,5.09.62.26,1.3.51,2,.77,3.72,1.33,8.58,2.56,14.88,3.36.69.09,1.39.17,2.11.25,3.9.41,8.32.66,13.3.69.35,0,.68.01,1.03.01.37,0,.72,0,1.08-.01,4.98-.03,9.4-.28,13.29-.7.72-.08,1.42-.16,2.11-.25,6.3-.8,11.16-2.03,14.88-3.36.7-.25,1.37-.51,1.99-.77,4.54-1.88,7.05-3.85,8.3-5.08.7-.69,1.01-1.16,1.07-1.25.21-.34.2-.74.02-1.07-.03-.05-.06-.1-.09-.14-.07-.09-.15-.18-.25-.24-.49-.32-1.14-.18-1.46.31,0,.01-.14.2-.43.51-.86.93-3.17,2.98-8.01,4.98-.62.26-1.27.51-1.97.76-3.59,1.28-8.33,2.48-14.51,3.26-.69.09-1.39.17-2.11.25-3.75.4-8.02.63-12.82.67-.36,0-.71.01-1.08.01s-.68,0-1.03,0c-4.8-.03-9.07-.27-12.82-.66-.72-.08-1.42-.16-2.11-.25-6.18-.78-10.92-1.97-14.51-3.25-.71-.25-1.36-.51-1.98-.76-4.84-2-7.14-4.05-8.01-4.99-.29-.31-.42-.5-.43-.52-.31-.49-.96-.63-1.45-.32-.09.06-.15.13-.22.21-.07.08-.12.16-.16.25-.15.31-.15.69.05,1Z"/>
    <path class="st0" d="M555.64,416.53c-.62-.26-1.27-.52-1.97-.78-3.73-1.37-8.63-2.63-15.03-3.46-.68-.09-1.38-.17-2.1-.25-3.94-.43-8.43-.69-13.5-.72-.36,0-.71-.01-1.08-.01s-.68,0-1.03,0c-5.07.03-9.57.25-13.52.63-.72.07-1.42.14-2.1.22-6.49.74-11.45,1.86-15.19,3.08-.71.23-1.37.47-2,.7-5.59,2.11-7.9,4.29-8.59,5.06-.13.14-.21.24-.23.28-.34.47-.24,1.13.24,1.48.31.23.7.24,1.04.1.17-.07.33-.17.44-.33.03-.05,1.8-2.35,7.85-4.62.62-.23,1.3-.47,2.02-.7,3.61-1.17,8.44-2.26,14.85-2.97.69-.08,1.39-.15,2.11-.21,3.81-.35,8.16-.56,13.07-.59.35,0,.68,0,1.03,0,.37,0,.72,0,1.08.01,4.9.03,9.23.28,13.04.69.72.08,1.42.16,2.11.25,6.29.81,11.06,2.05,14.65,3.37.7.26,1.37.52,1.98.78,5.6,2.38,7.65,4.79,8.01,5.25.04.05.06.08.06.09.2.32.54.49.89.49.19,0,.39-.05.57-.16.49-.31.64-.97.33-1.46-.05-.07-.26-.39-.71-.88-1.08-1.16-3.53-3.28-8.34-5.31Z"/>
    <path class="st0" d="M434.67,353.56h-1.41c-.58,0-1.06.47-1.06,1.06s.47,1.06,1.06,1.06h1.41c.58,0,1.06-.47,1.06-1.06s-.47-1.06-1.06-1.06Z"/>
    <path class="st0" d="M406.47,353.56h-1.41c-.58,0-1.06.47-1.06,1.06s.47,1.06,1.06,1.06h1.41c.58,0,1.06-.47,1.06-1.06s-.47-1.06-1.06-1.06Z"/>
    <path class="st0" d="M417.75,353.56h-1.41c-.58,0-1.06.47-1.06,1.06s.47,1.06,1.06,1.06h1.41c.58,0,1.06-.47,1.06-1.06s-.47-1.06-1.06-1.06Z"/>
    <path class="st0" d="M423.39,353.56h-1.41c-.58,0-1.06.47-1.06,1.06s.47,1.06,1.06,1.06h1.41c.58,0,1.06-.47,1.06-1.06s-.47-1.06-1.06-1.06Z"/>
    <path class="st0" d="M389.54,353.56h-1.41c-.58,0-1.06.47-1.06,1.06s.47,1.06,1.06,1.06h1.41c.58,0,1.06-.47,1.06-1.06s-.47-1.06-1.06-1.06Z"/>
    <path class="st0" d="M461.47,353.56c-.58,0-1.06.47-1.06,1.06s.47,1.06,1.06,1.06h1.41c.58,0,1.06-.47,1.06-1.06s-.47-1.06-1.06-1.06h-1.41Z"/>
    <path class="st0" d="M429.03,353.56h-1.41c-.58,0-1.06.47-1.06,1.06s.47,1.06,1.06,1.06h1.41c.58,0,1.06-.47,1.06-1.06s-.47-1.06-1.06-1.06Z"/>
    <path class="st0" d="M383.9,353.56h-1.41c-.58,0-1.06.47-1.06,1.06s.47,1.06,1.06,1.06h1.41c.58,0,1.06-.47,1.06-1.06s-.47-1.06-1.06-1.06Z"/>
    <path class="st0" d="M378.26,353.56h-1.41c-.58,0-1.06.47-1.06,1.06s.47,1.06,1.06,1.06h1.41c.58,0,1.06-.47,1.06-1.06s-.47-1.06-1.06-1.06Z"/>
    <path class="st0" d="M457.24,353.56h-1.41c-.58,0-1.06.47-1.06,1.06s.47,1.06,1.06,1.06h1.41c.58,0,1.06-.47,1.06-1.06s-.47-1.06-1.06-1.06Z"/>
    <path class="st0" d="M395.18,353.56h-1.41c-.58,0-1.06.47-1.06,1.06s.47,1.06,1.06,1.06h1.41c.58,0,1.06-.47,1.06-1.06s-.47-1.06-1.06-1.06Z"/>
    <path class="st0" d="M451.6,353.56h-1.41c-.58,0-1.06.47-1.06,1.06s.47,1.06,1.06,1.06h1.41c.58,0,1.06-.47,1.06-1.06s-.47-1.06-1.06-1.06Z"/>
    <path class="st0" d="M400.83,353.56h-1.41c-.58,0-1.06.47-1.06,1.06s.47,1.06,1.06,1.06h1.41c.58,0,1.06-.47,1.06-1.06s-.47-1.06-1.06-1.06Z"/>
    <path class="st0" d="M467.11,353.56c-.58,0-1.06.47-1.06,1.06s.47,1.06,1.06,1.06h1.41c.58,0,1.06-.47,1.06-1.06s-.47-1.06-1.06-1.06h-1.41Z"/>
    <path class="st0" d="M472.75,353.56c-.58,0-1.06.47-1.06,1.06s.47,1.06,1.06,1.06h1.41c.58,0,1.06-.47,1.06-1.06s-.47-1.06-1.06-1.06h-1.41Z"/>
    <path class="st0" d="M412.11,353.56h-1.41c-.58,0-1.06.47-1.06,1.06s.47,1.06,1.06,1.06h1.41c.58,0,1.06-.47,1.06-1.06s-.47-1.06-1.06-1.06Z"/>
    <path class="st0" d="M440.32,353.56h-1.41c-.58,0-1.06.47-1.06,1.06s.47,1.06,1.06,1.06h1.41c.58,0,1.06-.47,1.06-1.06s-.47-1.06-1.06-1.06Z"/>
    <path class="st0" d="M445.96,353.56h-1.41c-.58,0-1.06.47-1.06,1.06s.47,1.06,1.06,1.06h1.41c.58,0,1.06-.47,1.06-1.06s-.47-1.06-1.06-1.06Z"/>
    <path class="st0" d="M445.96,371.93h-1.41c-.58,0-1.06.47-1.06,1.06s.47,1.06,1.06,1.06h1.41c.58,0,1.06-.47,1.06-1.06s-.47-1.06-1.06-1.06Z"/>
    <path class="st0" d="M423.39,371.93h-1.41c-.58,0-1.06.47-1.06,1.06s.47,1.06,1.06,1.06h1.41c.58,0,1.06-.47,1.06-1.06s-.47-1.06-1.06-1.06Z"/>
    <path class="st0" d="M383.9,371.93h-1.41c-.58,0-1.06.47-1.06,1.06s.47,1.06,1.06,1.06h1.41c.58,0,1.06-.47,1.06-1.06s-.47-1.06-1.06-1.06Z"/>
    <path class="st0" d="M378.26,371.93h-1.41c-.58,0-1.06.47-1.06,1.06s.47,1.06,1.06,1.06h1.41c.58,0,1.06-.47,1.06-1.06s-.47-1.06-1.06-1.06Z"/>
    <path class="st0" d="M395.18,371.93h-1.41c-.58,0-1.06.47-1.06,1.06s.47,1.06,1.06,1.06h1.41c.58,0,1.06-.47,1.06-1.06s-.47-1.06-1.06-1.06Z"/>
    <path class="st0" d="M440.32,371.93h-1.41c-.58,0-1.06.47-1.06,1.06s.47,1.06,1.06,1.06h1.41c.58,0,1.06-.47,1.06-1.06s-.47-1.06-1.06-1.06Z"/>
    <path class="st0" d="M451.6,371.93h-1.41c-.58,0-1.06.47-1.06,1.06s.47,1.06,1.06,1.06h1.41c.58,0,1.06-.47,1.06-1.06s-.47-1.06-1.06-1.06Z"/>
    <path class="st0" d="M412.11,371.93h-1.41c-.58,0-1.06.47-1.06,1.06s.47,1.06,1.06,1.06h1.41c.58,0,1.06-.47,1.06-1.06s-.47-1.06-1.06-1.06Z"/>
    <path class="st0" d="M434.67,371.93h-1.41c-.58,0-1.06.47-1.06,1.06s.47,1.06,1.06,1.06h1.41c.58,0,1.06-.47,1.06-1.06s-.47-1.06-1.06-1.06Z"/>
    <path class="st0" d="M389.54,371.93h-1.41c-.58,0-1.06.47-1.06,1.06s.47,1.06,1.06,1.06h1.41c.58,0,1.06-.47,1.06-1.06s-.47-1.06-1.06-1.06Z"/>
    <path class="st0" d="M417.75,371.93h-1.41c-.58,0-1.06.47-1.06,1.06s.47,1.06,1.06,1.06h1.41c.58,0,1.06-.47,1.06-1.06s-.47-1.06-1.06-1.06Z"/>
    <path class="st0" d="M406.47,371.93h-1.41c-.58,0-1.06.47-1.06,1.06s.47,1.06,1.06,1.06h1.41c.58,0,1.06-.47,1.06-1.06s-.47-1.06-1.06-1.06Z"/>
    <path class="st0" d="M429.03,371.93h-1.41c-.58,0-1.06.47-1.06,1.06s.47,1.06,1.06,1.06h1.41c.58,0,1.06-.47,1.06-1.06s-.47-1.06-1.06-1.06Z"/>
    <path class="st0" d="M457.24,371.93h-1.41c-.58,0-1.06.47-1.06,1.06s.47,1.06,1.06,1.06h1.41c.58,0,1.06-.47,1.06-1.06s-.47-1.06-1.06-1.06Z"/>
    <path class="st0" d="M400.83,371.93h-1.41c-.58,0-1.06.47-1.06,1.06s.47,1.06,1.06,1.06h1.41c.58,0,1.06-.47,1.06-1.06s-.47-1.06-1.06-1.06Z"/>
  </g>
  <g>
    <path class="st0" d="M532.2,116.5c0-.58.47-1.06,1.06-1.06h-134.22c.58,0,1.06.47,1.06,1.06v1.06h132.1v-1.06Z"/>
    <path class="st0" d="M399.05,115.44c-12.71,0-23.05-10.34-23.05-23.05s10.34-23.05,23.05-23.05h135.02c12.71,0,23.05,10.34,23.05,23.05s-10.34,23.05-23.05,23.05h-.8c.58,0,1.06.47,1.06,1.06v1.05c13.76-.14,24.91-11.37,24.91-25.16s-11.29-25.17-25.17-25.17h-135.02c-13.88,0-25.17,11.29-25.17,25.17s10.72,24.58,24.11,25.14v-1.03c0-.58.47-1.06,1.06-1.06Z"/>
    <path class="st0" d="M524.02,82.09c-5.68,0-10.3,4.62-10.3,10.3s4.62,10.3,10.3,10.3,10.3-4.62,10.3-10.3-4.62-10.3-10.3-10.3ZM524.02,100.58c-4.51,0-8.18-3.67-8.18-8.18s3.67-8.18,8.18-8.18,8.18,3.67,8.18,8.18-3.67,8.18-8.18,8.18Z"/>
    <path class="st0" d="M399.05,82.09c-.58,0-1.06.47-1.06,1.06v20.9c0,.58.47,1.06,1.06,1.06s1.06-.47,1.06-1.06v-20.9c0-.58-.47-1.06-1.06-1.06Z"/>
    <path class="st0" d="M416.73,82.09c-.58,0-1.06.47-1.06,1.06v20.9c0,.58.47,1.06,1.06,1.06s1.06-.47,1.06-1.06v-20.9c0-.58-.47-1.06-1.06-1.06Z"/>
    <path class="st0" d="M434.41,82.09c-.58,0-1.06.47-1.06,1.06v20.9c0,.58.47,1.06,1.06,1.06s1.06-.47,1.06-1.06v-20.9c0-.58-.47-1.06-1.06-1.06Z"/>
    <path class="st0" d="M452.09,82.09c-.58,0-1.06.47-1.06,1.06v20.9c0,.58.47,1.06,1.06,1.06s1.06-.47,1.06-1.06v-20.9c0-.58-.47-1.06-1.06-1.06Z"/>
    <path class="st0" d="M467.26,91.33h-.71c-.58,0-1.06.47-1.06,1.06s.47,1.06,1.06,1.06h.71c.58,0,1.06-.47,1.06-1.06s-.47-1.06-1.06-1.06Z"/>
    <path class="st0" d="M483.67,91.33h-1.37c-.58,0-1.06.47-1.06,1.06s.47,1.06,1.06,1.06h1.37c.58,0,1.06-.47,1.06-1.06s-.47-1.06-1.06-1.06Z"/>
    <path class="st0" d="M500.09,91.33h-1.37c-.58,0-1.06.47-1.06,1.06s.47,1.06,1.06,1.06h1.37c.58,0,1.06-.47,1.06-1.06s-.47-1.06-1.06-1.06Z"/>
    <path class="st0" d="M487.78,91.33h-1.37c-.58,0-1.06.47-1.06,1.06s.47,1.06,1.06,1.06h1.37c.58,0,1.06-.47,1.06-1.06s-.47-1.06-1.06-1.06Z"/>
    <path class="st0" d="M491.88,91.33h-1.37c-.58,0-1.06.47-1.06,1.06s.47,1.06,1.06,1.06h1.37c.58,0,1.06-.47,1.06-1.06s-.47-1.06-1.06-1.06Z"/>
    <path class="st0" d="M479.57,91.33h-1.37c-.58,0-1.06.47-1.06,1.06s.47,1.06,1.06,1.06h1.37c.58,0,1.06-.47,1.06-1.06s-.47-1.06-1.06-1.06Z"/>
    <path class="st0" d="M495.98,91.33h-1.37c-.58,0-1.06.47-1.06,1.06s.47,1.06,1.06,1.06h1.37c.58,0,1.06-.47,1.06-1.06s-.47-1.06-1.06-1.06Z"/>
    <path class="st0" d="M471.36,91.33h-1.37c-.58,0-1.06.47-1.06,1.06s.47,1.06,1.06,1.06h1.37c.58,0,1.06-.47,1.06-1.06s-.47-1.06-1.06-1.06Z"/>
    <path class="st0" d="M475.47,91.33h-1.37c-.58,0-1.06.47-1.06,1.06s.47,1.06,1.06,1.06h1.37c.58,0,1.06-.47,1.06-1.06s-.47-1.06-1.06-1.06Z"/>
    <path class="st0" d="M503.53,91.33h-.71c-.58,0-1.06.47-1.06,1.06s.47,1.06,1.06,1.06h.71c.58,0,1.06-.47,1.06-1.06s-.47-1.06-1.06-1.06Z"/>
    <path class="st0" d="M399.49,173.01h133.32c.14-.06.29-.11.45-.11s.31.04.45.11h.36c13.88,0,25.17-11.29,25.17-25.17s-11.15-25.02-24.91-25.16v1.05c0,.58-.47,1.06-1.06,1.06h.8c12.71,0,23.05,10.34,23.05,23.05s-10.34,23.05-23.05,23.05h-135.02c-12.71,0-23.05-10.34-23.05-23.05s10.34-23.05,23.05-23.05c-.58,0-1.06-.47-1.06-1.06v-1.03c-13.39.56-24.11,11.62-24.11,25.14s11.06,24.93,24.74,25.16c.13-.06.28-.1.43-.1s.31.04.45.11Z"/>
    <path class="st0" d="M532.2,123.73v-1.06h-132.1v1.06c0,.58-.47,1.06-1.06,1.06h134.22c-.58,0-1.06-.47-1.06-1.06Z"/>
    <path class="st0" d="M524.02,158.15c5.68,0,10.3-4.62,10.3-10.3s-4.62-10.3-10.3-10.3-10.3,4.62-10.3,10.3,4.62,10.3,10.3,10.3ZM524.02,139.66c4.51,0,8.18,3.67,8.18,8.18s-3.67,8.18-8.18,8.18-8.18-3.67-8.18-8.18,3.67-8.18,8.18-8.18Z"/>
    <path class="st0" d="M397.99,138.6v20.9c0,.58.47,1.06,1.06,1.06s1.06-.47,1.06-1.06v-20.9c0-.58-.47-1.06-1.06-1.06s-1.06.47-1.06,1.06Z"/>
    <path class="st0" d="M416.73,160.56c.58,0,1.06-.47,1.06-1.06v-20.9c0-.58-.47-1.06-1.06-1.06s-1.06.47-1.06,1.06v20.9c0,.58.47,1.06,1.06,1.06Z"/>
    <path class="st0" d="M434.41,160.56c.58,0,1.06-.47,1.06-1.06v-20.9c0-.58-.47-1.06-1.06-1.06s-1.06.47-1.06,1.06v20.9c0,.58.47,1.06,1.06,1.06Z"/>
    <path class="st0" d="M452.09,160.56c.58,0,1.06-.47,1.06-1.06v-20.9c0-.58-.47-1.06-1.06-1.06s-1.06.47-1.06,1.06v20.9c0,.58.47,1.06,1.06,1.06Z"/>
    <path class="st0" d="M466.56,148.9h.71c.58,0,1.06-.47,1.06-1.06s-.47-1.06-1.06-1.06h-.71c-.58,0-1.06.47-1.06,1.06s.47,1.06,1.06,1.06Z"/>
    <path class="st0" d="M482.31,148.9h1.37c.58,0,1.06-.47,1.06-1.06s-.47-1.06-1.06-1.06h-1.37c-.58,0-1.06.47-1.06,1.06s.47,1.06,1.06,1.06Z"/>
    <path class="st0" d="M478.2,148.9h1.37c.58,0,1.06-.47,1.06-1.06s-.47-1.06-1.06-1.06h-1.37c-.58,0-1.06.47-1.06,1.06s.47,1.06,1.06,1.06Z"/>
    <path class="st0" d="M486.41,148.9h1.37c.58,0,1.06-.47,1.06-1.06s-.47-1.06-1.06-1.06h-1.37c-.58,0-1.06.47-1.06,1.06s.47,1.06,1.06,1.06Z"/>
    <path class="st0" d="M470,148.9h1.37c.58,0,1.06-.47,1.06-1.06s-.47-1.06-1.06-1.06h-1.37c-.58,0-1.06.47-1.06,1.06s.47,1.06,1.06,1.06Z"/>
    <path class="st0" d="M474.1,148.9h1.37c.58,0,1.06-.47,1.06-1.06s-.47-1.06-1.06-1.06h-1.37c-.58,0-1.06.47-1.06,1.06s.47,1.06,1.06,1.06Z"/>
    <path class="st0" d="M490.51,148.9h1.37c.58,0,1.06-.47,1.06-1.06s-.47-1.06-1.06-1.06h-1.37c-.58,0-1.06.47-1.06,1.06s.47,1.06,1.06,1.06Z"/>
    <path class="st0" d="M494.61,148.9h1.37c.58,0,1.06-.47,1.06-1.06s-.47-1.06-1.06-1.06h-1.37c-.58,0-1.06.47-1.06,1.06s.47,1.06,1.06,1.06Z"/>
    <path class="st0" d="M498.72,148.9h1.37c.58,0,1.06-.47,1.06-1.06s-.47-1.06-1.06-1.06h-1.37c-.58,0-1.06.47-1.06,1.06s.47,1.06,1.06,1.06Z"/>
    <path class="st0" d="M502.82,148.9h.71c.58,0,1.06-.47,1.06-1.06s-.47-1.06-1.06-1.06h-.71c-.58,0-1.06.47-1.06,1.06s.47,1.06,1.06,1.06Z"/>
    <path class="st0" d="M533.26,179.44c-.58,0-1.06-.47-1.06-1.06v-.25h-132.1v.25c0,.58-.47,1.06-1.06,1.06s-1.06-.47-1.06-1.06v-.23c-13.39.56-24.11,11.62-24.11,25.14s10.72,24.58,24.11,25.14v-1.03c0-.58.47-1.06,1.06-1.06-12.71,0-23.05-10.34-23.05-23.05s10.34-23.05,23.05-23.05h135.02c12.71,0,23.05,10.34,23.05,23.05s-10.34,23.05-23.05,23.05h-.8c.58,0,1.06.47,1.06,1.06v1.05c13.76-.14,24.91-11.37,24.91-25.16s-11.15-25.02-24.91-25.16v.25c0,.58-.47,1.06-1.06,1.06Z"/>
    <path class="st0" d="M533.26,226.35h-134.22c.58,0,1.06.47,1.06,1.06v1.06h132.1v-1.06c0-.58.47-1.06,1.06-1.06Z"/>
    <path class="st0" d="M524.02,193c-5.68,0-10.3,4.62-10.3,10.3s4.62,10.3,10.3,10.3,10.3-4.62,10.3-10.3-4.62-10.3-10.3-10.3ZM524.02,211.49c-4.51,0-8.18-3.67-8.18-8.18s3.67-8.18,8.18-8.18,8.18,3.67,8.18,8.18-3.67,8.18-8.18,8.18Z"/>
    <path class="st0" d="M399.05,193c-.58,0-1.06.47-1.06,1.06v20.9c0,.58.47,1.06,1.06,1.06s1.06-.47,1.06-1.06v-20.9c0-.58-.47-1.06-1.06-1.06Z"/>
    <path class="st0" d="M416.73,193c-.58,0-1.06.47-1.06,1.06v20.9c0,.58.47,1.06,1.06,1.06s1.06-.47,1.06-1.06v-20.9c0-.58-.47-1.06-1.06-1.06Z"/>
    <path class="st0" d="M434.41,193c-.58,0-1.06.47-1.06,1.06v20.9c0,.58.47,1.06,1.06,1.06s1.06-.47,1.06-1.06v-20.9c0-.58-.47-1.06-1.06-1.06Z"/>
    <path class="st0" d="M452.09,193c-.58,0-1.06.47-1.06,1.06v20.9c0,.58.47,1.06,1.06,1.06s1.06-.47,1.06-1.06v-20.9c0-.58-.47-1.06-1.06-1.06Z"/>
    <path class="st0" d="M467.26,202.24h-.71c-.58,0-1.06.47-1.06,1.06s.47,1.06,1.06,1.06h.71c.58,0,1.06-.47,1.06-1.06s-.47-1.06-1.06-1.06Z"/>
    <path class="st0" d="M500.09,202.24h-1.37c-.58,0-1.06.47-1.06,1.06s.47,1.06,1.06,1.06h1.37c.58,0,1.06-.47,1.06-1.06s-.47-1.06-1.06-1.06Z"/>
    <path class="st0" d="M491.88,202.24h-1.37c-.58,0-1.06.47-1.06,1.06s.47,1.06,1.06,1.06h1.37c.58,0,1.06-.47,1.06-1.06s-.47-1.06-1.06-1.06Z"/>
    <path class="st0" d="M487.78,202.24h-1.37c-.58,0-1.06.47-1.06,1.06s.47,1.06,1.06,1.06h1.37c.58,0,1.06-.47,1.06-1.06s-.47-1.06-1.06-1.06Z"/>
    <path class="st0" d="M483.67,202.24h-1.37c-.58,0-1.06.47-1.06,1.06s.47,1.06,1.06,1.06h1.37c.58,0,1.06-.47,1.06-1.06s-.47-1.06-1.06-1.06Z"/>
    <path class="st0" d="M475.47,202.24h-1.37c-.58,0-1.06.47-1.06,1.06s.47,1.06,1.06,1.06h1.37c.58,0,1.06-.47,1.06-1.06s-.47-1.06-1.06-1.06Z"/>
    <path class="st0" d="M471.36,202.24h-1.37c-.58,0-1.06.47-1.06,1.06s.47,1.06,1.06,1.06h1.37c.58,0,1.06-.47,1.06-1.06s-.47-1.06-1.06-1.06Z"/>
    <path class="st0" d="M479.57,202.24h-1.37c-.58,0-1.06.47-1.06,1.06s.47,1.06,1.06,1.06h1.37c.58,0,1.06-.47,1.06-1.06s-.47-1.06-1.06-1.06Z"/>
    <path class="st0" d="M495.98,202.24h-1.37c-.58,0-1.06.47-1.06,1.06s.47,1.06,1.06,1.06h1.37c.58,0,1.06-.47,1.06-1.06s-.47-1.06-1.06-1.06Z"/>
    <path class="st0" d="M503.53,202.24h-.71c-.58,0-1.06.47-1.06,1.06s.47,1.06,1.06,1.06h.71c.58,0,1.06-.47,1.06-1.06s-.47-1.06-1.06-1.06Z"/>
    <path class="st0" d="M399.05,124.79c.58,0,1.06-.47,1.06-1.06v-7.23c0-.58-.47-1.06-1.06-1.06s-1.06.47-1.06,1.06v7.23c0,.58.47,1.06,1.06,1.06Z"/>
    <path class="st0" d="M397.99,173.97v4.42c0,.58.47,1.06,1.06,1.06s1.06-.47,1.06-1.06v-4.42c0-.42-.25-.78-.61-.95-.14-.06-.29-.11-.45-.11s-.3.04-.43.1c-.37.17-.63.53-.63.96Z"/>
    <path class="st0" d="M533.26,115.44c-.58,0-1.06.47-1.06,1.06v7.23c0,.58.47,1.06,1.06,1.06s1.06-.47,1.06-1.06v-7.23c0-.58-.47-1.06-1.06-1.06Z"/>
    <path class="st0" d="M532.82,173.01c-.36.17-.61.53-.61.95v4.42c0,.58.47,1.06,1.06,1.06s1.06-.47,1.06-1.06v-4.42c0-.42-.25-.78-.61-.95-.14-.06-.29-.11-.45-.11s-.31.04-.45.11Z"/>
    <path class="st0" d="M399.05,226.35c-.58,0-1.06.47-1.06,1.06v20.8c0,.58.47,1.06,1.06,1.06s1.06-.47,1.06-1.06v-20.8c0-.58-.47-1.06-1.06-1.06Z"/>
    <path class="st0" d="M533.26,226.35c-.58,0-1.06.47-1.06,1.06v20.8c0,.58.47,1.06,1.06,1.06s1.06-.47,1.06-1.06v-20.8c0-.58-.47-1.06-1.06-1.06Z"/>
    <path class="st0" d="M416.73,236.75c-.58,0-1.06.47-1.06,1.06s.47,1.06,1.06,1.06h98.05c.58,0,1.06-.47,1.06-1.06s-.47-1.06-1.06-1.06h-98.05Z"/>
  </g>
  <g>
    <path class="st0" d="M279.13,783.6v-3.03c0,.58-.47,1.06-1.06,1.06h-1.06v1.97c0,6.1-4.96,11.06-11.06,11.06h-115.14c-6.1,0-11.06-4.96-11.06-11.06v-1.97h-1.06c-.58,0-1.06-.47-1.06-1.06v3.03c0,7.27,5.91,13.18,13.18,13.18h115.14c7.27,0,13.18-5.91,13.18-13.18Z"/>
    <path class="st0" d="M138.69,779.51h1.06v-75.7c0-6.1,4.96-11.06,11.06-11.06h115.14c6.1,0,11.06,4.96,11.06,11.06v75.7h1.06c.58,0,1.06.47,1.06,1.06v-76.76c0-7.27-5.91-13.18-13.18-13.18h-115.14c-7.27,0-13.18,5.91-13.18,13.18v76.76c0-.58.47-1.06,1.06-1.06Z"/>
    <path class="st0" d="M183.12,759.12c-.02.06-.03.12-.05.18.03-.06.04-.12.05-.18Z"/>
    <path class="st0" d="M182.96,759.46c-.04.06-.08.12-.14.17.05-.05.09-.11.14-.17Z"/>
    <path class="st0" d="M179.87,757.8h-20.3l-1.37,1.72c-.21.26-.52.4-.83.4h0s24.75,0,24.75,0h0c-.3,0-.61-.13-.81-.38l-1.44-1.73Z"/>
    <path class="st0" d="M156.53,728.46c.04-.06.08-.12.14-.17-.05.05-.09.11-.14.17Z"/>
    <path class="st0" d="M156.83,728.18c.06-.04.12-.08.19-.1-.07.03-.13.06-.19.1Z"/>
    <path class="st0" d="M158.43,755.83v-23.84l-1.87-2.25c-.17-.21-.25-.47-.23-.72,0,.02,0,.03,0,.05v29.8s.01.04.01.06c-.01-.25.05-.51.22-.72l1.89-2.37Z"/>
    <path class="st0" d="M156.37,728.79c.02-.06.03-.12.05-.18-.03.06-.04.12-.05.18Z"/>
    <path class="st0" d="M157,759.84s-.08-.04-.12-.07c.04.02.08.05.12.07Z"/>
    <path class="st0" d="M182.12,728h-24.75s-.09.02-.14.03c.35-.05.71.06.95.35l1.44,1.73h19.27l1.37-1.72c.36-.46,1.03-.53,1.49-.17.46.36.53,1.03.17,1.49l-.86,1.08v25.13l1.87,2.25c.18.21.25.47.23.72,0-.02,0-.03,0-.05v-29.8c0-.58-.47-1.06-1.06-1.06Z"/>
    <path class="st0" d="M182.63,759.76s-.08.05-.13.07c.05-.02.08-.05.13-.07Z"/>
    <path class="st0" d="M156.43,759.31c-.03-.06-.04-.12-.06-.18.02.06.03.13.06.18Z"/>
    <path class="st0" d="M156.68,759.64c-.06-.05-.1-.11-.14-.17.04.06.09.12.14.17Z"/>
    <path class="st0" d="M195.16,728.46c.04-.06.08-.12.14-.17-.05.05-.09.11-.14.17Z"/>
    <path class="st0" d="M195.46,728.18c.06-.04.12-.08.19-.1-.07.03-.13.06-.19.1Z"/>
    <path class="st0" d="M195.06,759.3c-.03-.06-.04-.12-.05-.18.02.06.03.12.05.18Z"/>
    <path class="st0" d="M195.62,759.84s-.08-.05-.13-.07c.04.02.08.05.13.07Z"/>
    <path class="st0" d="M195.3,759.63c-.06-.05-.1-.11-.14-.17.04.06.08.12.14.17Z"/>
    <path class="st0" d="M221.11,728.07c.07.02.13.06.19.1-.06-.04-.12-.08-.19-.1Z"/>
    <path class="st0" d="M218.5,757.8h-20.24l-1.44,1.73c-.21.25-.51.38-.81.38h0s24.75,0,24.75,0h0c-.3,0-.61-.13-.81-.38l-1.44-1.73Z"/>
    <path class="st0" d="M221.26,759.76s-.08.05-.13.07c.05-.02.08-.05.13-.07Z"/>
    <path class="st0" d="M221.57,729.74l-1.87,2.25v23.94l1.87,2.25c.17.21.25.47.23.72,0-.02,0-.03,0-.05v-29.8s0-.03,0-.05c.01.25-.06.51-.23.72Z"/>
    <path class="st0" d="M221.46,728.28c.06.05.1.11.14.17-.04-.06-.08-.12-.14-.17Z"/>
    <path class="st0" d="M197.07,755.93v-23.94l-1.87-2.25c-.18-.21-.25-.47-.23-.72,0,.02,0,.03,0,.05v29.8s0,.03,0,.05c-.01-.25.06-.51.23-.72l1.87-2.25Z"/>
    <path class="st0" d="M196.82,728.38l1.44,1.73h20.24l1.44-1.73c.24-.29.6-.4.95-.35-.05,0-.09-.03-.14-.03h-24.75s-.09.02-.14.03c.35-.05.71.06.95.35Z"/>
    <path class="st0" d="M221.71,728.61c.03.06.04.12.05.18-.02-.06-.03-.12-.05-.18Z"/>
    <path class="st0" d="M195,728.79c.02-.06.03-.12.05-.18-.03.06-.04.12-.05.18Z"/>
    <path class="st0" d="M221.76,759.12c-.02.06-.03.12-.05.18.03-.06.04-.12.05-.18Z"/>
    <path class="st0" d="M221.6,759.46c-.04.06-.08.12-.14.17.05-.05.09-.11.14-.17Z"/>
    <path class="st0" d="M233.68,759.29c-.03-.06-.03-.12-.05-.18.02.06.02.12.05.18Z"/>
    <path class="st0" d="M259.39,728h-24.75c-.05,0-.1.02-.15.03.34-.05.7.05.94.33l1.52,1.75h21.2l.42-.49c.38-.44,1.05-.49,1.49-.11.44.38.49,1.05.11,1.49l-1.86,2.14v21.54l1.86,2.13c.38.44.34,1.11-.1,1.49-.2.17-.45.26-.69.26-.3,0-.59-.12-.8-.36l-.36-.42h-21.27l-1.52,1.75c-.21.24-.5.36-.8.36,0,0,0,0,0,0h24.75c.58,0,1.06-.47,1.06-1.06v-29.8c0-.58-.47-1.06-1.06-1.06Z"/>
    <path class="st0" d="M233.64,728.8c.02-.06.02-.12.05-.18-.03.05-.03.12-.05.18Z"/>
    <path class="st0" d="M233.93,759.63c-.06-.05-.1-.12-.14-.18.04.06.08.13.14.18Z"/>
    <path class="st0" d="M233.79,728.47c.04-.06.08-.13.14-.18-.06.05-.09.12-.14.18Z"/>
    <path class="st0" d="M234.08,728.19c.06-.04.13-.08.19-.11-.07.03-.13.07-.19.11Z"/>
    <path class="st0" d="M234.25,759.84s-.09-.05-.14-.08c.05.03.09.06.14.08Z"/>
    <path class="st0" d="M235.7,756.02v-24.13l-1.86-2.13c-.18-.21-.26-.47-.25-.73,0,.01,0,.02,0,.04v29.8s0,.02,0,.04c0-.26.07-.52.25-.73l1.86-2.14Z"/>
    <rect class="st0" x="193.36" y="705.96" width="8.84" height="8.84"/>
    <rect class="st0" x="203.96" y="705.96" width="8.84" height="8.84"/>
    <rect class="st0" x="214.57" y="705.96" width="8.84" height="8.84"/>
    <path class="st0" d="M138.69,781.63h139.38c.58,0,1.06-.47,1.06-1.06s-.47-1.06-1.06-1.06h-139.38c-.58,0-1.06.47-1.06,1.06s.47,1.06,1.06,1.06Z"/>
    <path class="st0" d="M249.54,678.4c.58,0,1.06-.47,1.06-1.06v-41.67c0-23.28-18.94-42.22-42.22-42.22s-42.22,18.94-42.22,42.22v41.67c0,.58.47,1.06,1.06,1.06h82.32ZM168.28,635.68c0-22.11,17.99-40.1,40.1-40.1s40.1,17.99,40.1,40.1v40.61h-80.2v-40.61Z"/>
    <path class="st0" d="M208.38,609.34c-14.57,0-26.43,11.86-26.43,26.43v25.69c0,.58.47,1.06,1.06,1.06h50.75c.58,0,1.06-.47,1.06-1.06v-25.69c0-14.57-11.86-26.43-26.43-26.43ZM232.7,660.4h-48.63v-24.63c0-13.41,10.91-24.32,24.32-24.32s24.32,10.91,24.32,24.32v24.63Z"/>
    <path class="st0" d="M288.88,779.51h-.02c-.58.01-1.05.5-1.03,1.08.48,21.08-19.06,26.02-19.89,26.22-.57.14-.92.71-.78,1.27.12.49.55.81,1.03.81.08,0,.16,0,.25-.03.22-.05,22.04-5.51,21.52-28.32-.01-.58-.48-1.03-1.06-1.03Z"/>
    <path class="st0" d="M295.99,794.66c-.6-.03-1.08.43-1.1,1.01-.47,11.29-11.38,16.2-11.49,16.24-.53.23-.78.86-.55,1.39.17.4.56.63.97.63.14,0,.28-.03.42-.09.5-.22,12.23-5.46,12.76-18.1.02-.58-.43-1.08-1.01-1.1Z"/>
    <path class="st0" d="M141.85,678.31c.53-.24.77-.86.53-1.4-.24-.53-.86-.78-1.4-.54-.62.28-15.28,7.06-14.77,29.6.01.58.48,1.03,1.06,1.03h.02c.58-.01,1.05-.5,1.03-1.08-.48-21.07,12.94-27.36,13.51-27.62Z"/>
    <path class="st0" d="M120.64,679.61c-.53-.24-1.16,0-1.4.53-.19.43-4.67,10.53-2.59,19.85.11.49.55.83,1.03.83.08,0,.15,0,.23-.03.57-.13.93-.69.8-1.26-1.92-8.63,2.41-18.43,2.46-18.53.24-.53,0-1.16-.53-1.4Z"/>
    <path class="st0" d="M188.85,609.62c.53-.25.75-.88.49-1.41-.25-.53-.89-.75-1.41-.5-.4.19-9.79,4.84-12.08,18.21-.1.58.29,1.12.86,1.22.06.01.12.02.18.02.51,0,.95-.36,1.04-.88,2.1-12.25,10.83-16.62,10.92-16.66Z"/>
    <path class="st0" d="M158.43,731.99l9.69,11.67,1.35-1.69-9.84-11.85-1.44-1.73c-.24-.29-.6-.4-.95-.35-.07,0-.15.02-.22.04-.07.02-.13.06-.19.1-.04.03-.09.04-.13.07-.01.01-.02.03-.03.04-.06.05-.1.11-.14.17-.04.05-.08.1-.11.16-.03.06-.04.12-.05.18-.02.07-.04.14-.04.22-.01.25.06.51.23.72l1.87,2.25Z"/>
    <path class="st0" d="M181.06,755.93l-10.21-12.3-1.35,1.69,10.36,12.48,1.44,1.73c.21.25.51.38.81.38h0c.13,0,.26-.03.38-.08.04-.02.08-.05.13-.07.06-.03.11-.05.17-.09.01-.01.02-.03.03-.04.06-.05.1-.11.14-.17.04-.05.08-.1.11-.16.03-.06.04-.12.05-.18.02-.07.04-.14.04-.22.01-.25-.06-.51-.23-.72l-1.87-2.25Z"/>
    <path class="st0" d="M159.57,757.8l9.93-12.48,1.35-1.69,10.21-12.83.86-1.08c.36-.46.29-1.12-.17-1.49-.46-.36-1.12-.29-1.49.17l-1.37,1.72-9.43,11.85-1.35,1.69-9.69,12.17-1.89,2.37c-.17.21-.23.47-.22.72,0,.07.02.14.04.22.02.06.03.12.06.18.03.06.07.11.11.16.04.06.08.12.14.17.02.01.02.03.04.05.05.04.1.06.16.09.04.02.08.05.12.07.12.05.25.08.38.08h0c.31,0,.62-.14.83-.4l1.37-1.72Z"/>
    <path class="st0" d="M219.7,755.93l-9.94-11.97-1.37,1.66,10.12,12.18,1.44,1.73c.21.25.51.38.81.38,0,0,0,0,0,0,.13,0,.26-.03.38-.08.04-.02.08-.05.13-.07.06-.03.11-.05.17-.09.01-.01.02-.03.03-.04.06-.05.1-.11.14-.17.04-.05.08-.1.11-.16.03-.06.04-.12.05-.18.02-.07.04-.14.04-.22.01-.25-.06-.51-.23-.72l-1.87-2.25Z"/>
    <path class="st0" d="M197.07,731.99l9.94,11.97,1.37-1.66-10.12-12.18-1.44-1.73c-.24-.29-.6-.4-.95-.35-.07,0-.15.02-.22.04-.07.02-.13.06-.19.1-.04.03-.09.04-.13.07-.01.01-.02.03-.03.04-.06.05-.1.11-.14.17-.04.05-.08.1-.11.16-.03.06-.04.12-.05.18-.02.07-.04.14-.04.22-.01.25.06.51.23.72l1.87,2.25Z"/>
    <path class="st0" d="M198.26,757.8l10.12-12.18,1.37-1.66,9.94-11.97,1.87-2.25c.17-.21.25-.47.23-.72,0-.07-.02-.14-.04-.22-.02-.06-.03-.12-.05-.18-.03-.06-.07-.11-.11-.16-.04-.06-.08-.12-.14-.17-.01-.01-.02-.03-.03-.04-.04-.03-.09-.04-.13-.07-.06-.04-.12-.08-.19-.1-.07-.03-.14-.03-.22-.04-.35-.05-.71.06-.95.35l-1.44,1.73-10.12,12.18-1.37,1.66-9.94,11.97-1.87,2.25c-.18.21-.25.47-.23.72,0,.08.02.15.04.22.02.06.03.12.05.18.03.06.07.11.11.16.04.06.08.12.14.17.01.01.02.03.03.04.05.04.11.06.17.09.04.02.08.06.13.07.12.05.25.08.38.08h0c.3,0,.6-.13.81-.38l1.44-1.73Z"/>
    <path class="st0" d="M247.58,745.55l10.65,12.25.36.42c.21.24.5.36.8.36.25,0,.49-.09.69-.26.44-.38.49-1.05.1-1.49l-1.86-2.13-9.35-10.76-1.4,1.61Z"/>
    <path class="st0" d="M235.7,731.89l10.48,12.05,1.4-1.61-10.61-12.21-1.52-1.75c-.24-.28-.6-.38-.94-.33-.08.01-.15.02-.22.04-.07.03-.13.07-.19.11-.04.03-.09.04-.13.08,0,0-.01.02-.02.03-.06.05-.1.12-.14.18-.04.05-.08.1-.1.15-.03.06-.03.12-.05.18-.02.08-.04.15-.05.23,0,.26.07.52.25.73l1.86,2.13Z"/>
    <path class="st0" d="M236.96,757.8l10.62-12.25,1.4-1.61,9.35-10.78,1.86-2.14c.38-.44.33-1.11-.11-1.49-.44-.38-1.11-.34-1.49.11l-.42.49-10.59,12.21-1.4,1.61-10.48,12.08-1.86,2.14c-.18.21-.26.47-.25.73,0,.08.03.15.04.22.02.06.02.12.05.18.03.06.07.1.1.15.04.06.08.13.14.18,0,0,.01.02.02.03.05.04.11.07.17.1.05.03.09.06.14.08.12.05.26.08.39.08h0c.3,0,.59-.12.8-.36l1.52-1.75Z"/>
  </g>
  <g>
    <path class="st0" d="M491.38,869.7h-154.21c-.58,0-1.06.47-1.06,1.06v44.38c0,.58.47,1.06,1.06,1.06h154.21c.58,0,1.06-.47,1.06-1.06v-44.38c0-.58-.47-1.06-1.06-1.06ZM490.32,914.08h-152.1v-42.27h152.1v42.27Z"/>
    <path class="st0" d="M440.43,879.44h1.41c.58,0,1.06-.47,1.06-1.06s-.47-1.06-1.06-1.06h-1.41c-.58,0-1.06.47-1.06,1.06s.47,1.06,1.06,1.06Z"/>
    <path class="st0" d="M429.14,879.44h1.41c.58,0,1.06-.47,1.06-1.06s-.47-1.06-1.06-1.06h-1.41c-.58,0-1.06.47-1.06,1.06s.47,1.06,1.06,1.06Z"/>
    <path class="st0" d="M434.78,879.44h1.41c.58,0,1.06-.47,1.06-1.06s-.47-1.06-1.06-1.06h-1.41c-.58,0-1.06.47-1.06,1.06s.47,1.06,1.06,1.06Z"/>
    <path class="st0" d="M372.73,879.44h1.41c.58,0,1.06-.47,1.06-1.06s-.47-1.06-1.06-1.06h-1.41c-.58,0-1.06.47-1.06,1.06s.47,1.06,1.06,1.06Z"/>
    <path class="st0" d="M423.5,879.44h1.41c.58,0,1.06-.47,1.06-1.06s-.47-1.06-1.06-1.06h-1.41c-.58,0-1.06.47-1.06,1.06s.47,1.06,1.06,1.06Z"/>
    <path class="st0" d="M417.86,879.44h1.41c.58,0,1.06-.47,1.06-1.06s-.47-1.06-1.06-1.06h-1.41c-.58,0-1.06.47-1.06,1.06s.47,1.06,1.06,1.06Z"/>
    <path class="st0" d="M462.99,879.44h1.41c.58,0,1.06-.47,1.06-1.06s-.47-1.06-1.06-1.06h-1.41c-.58,0-1.06.47-1.06,1.06s.47,1.06,1.06,1.06Z"/>
    <path class="st0" d="M474.27,879.44h1.41c.58,0,1.06-.47,1.06-1.06s-.47-1.06-1.06-1.06h-1.41c-.58,0-1.06.47-1.06,1.06s.47,1.06,1.06,1.06Z"/>
    <path class="st0" d="M457.35,879.44h1.41c.58,0,1.06-.47,1.06-1.06s-.47-1.06-1.06-1.06h-1.41c-.58,0-1.06.47-1.06,1.06s.47,1.06,1.06,1.06Z"/>
    <path class="st0" d="M451.71,879.44h1.41c.58,0,1.06-.47,1.06-1.06s-.47-1.06-1.06-1.06h-1.41c-.58,0-1.06.47-1.06,1.06s.47,1.06,1.06,1.06Z"/>
    <path class="st0" d="M446.07,879.44h1.41c.58,0,1.06-.47,1.06-1.06s-.47-1.06-1.06-1.06h-1.41c-.58,0-1.06.47-1.06,1.06s.47,1.06,1.06,1.06Z"/>
    <path class="st0" d="M384.01,879.44h1.41c.58,0,1.06-.47,1.06-1.06s-.47-1.06-1.06-1.06h-1.41c-.58,0-1.06.47-1.06,1.06s.47,1.06,1.06,1.06Z"/>
    <path class="st0" d="M367.09,879.44h1.41c.58,0,1.06-.47,1.06-1.06s-.47-1.06-1.06-1.06h-1.41c-.58,0-1.06.47-1.06,1.06s.47,1.06,1.06,1.06Z"/>
    <path class="st0" d="M389.65,879.44h1.41c.58,0,1.06-.47,1.06-1.06s-.47-1.06-1.06-1.06h-1.41c-.58,0-1.06.47-1.06,1.06s.47,1.06,1.06,1.06Z"/>
    <path class="st0" d="M395.29,879.44h1.41c.58,0,1.06-.47,1.06-1.06s-.47-1.06-1.06-1.06h-1.41c-.58,0-1.06.47-1.06,1.06s.47,1.06,1.06,1.06Z"/>
    <path class="st0" d="M378.37,879.44h1.41c.58,0,1.06-.47,1.06-1.06s-.47-1.06-1.06-1.06h-1.41c-.58,0-1.06.47-1.06,1.06s.47,1.06,1.06,1.06Z"/>
    <path class="st0" d="M400.94,879.44h1.41c.58,0,1.06-.47,1.06-1.06s-.47-1.06-1.06-1.06h-1.41c-.58,0-1.06.47-1.06,1.06s.47,1.06,1.06,1.06Z"/>
    <path class="st0" d="M479.92,879.44h1.41c.58,0,1.06-.47,1.06-1.06s-.47-1.06-1.06-1.06h-1.41c-.58,0-1.06.47-1.06,1.06s.47,1.06,1.06,1.06Z"/>
    <path class="st0" d="M406.58,879.44h1.41c.58,0,1.06-.47,1.06-1.06s-.47-1.06-1.06-1.06h-1.41c-.58,0-1.06.47-1.06,1.06s.47,1.06,1.06,1.06Z"/>
    <path class="st0" d="M355.8,879.44h1.41c.58,0,1.06-.47,1.06-1.06s-.47-1.06-1.06-1.06h-1.41c-.58,0-1.06.47-1.06,1.06s.47,1.06,1.06,1.06Z"/>
    <path class="st0" d="M361.45,879.44h1.41c.58,0,1.06-.47,1.06-1.06s-.47-1.06-1.06-1.06h-1.41c-.58,0-1.06.47-1.06,1.06s.47,1.06,1.06,1.06Z"/>
    <path class="st0" d="M350.16,879.44h1.41c.58,0,1.06-.47,1.06-1.06s-.47-1.06-1.06-1.06h-1.41c-.58,0-1.06.47-1.06,1.06s.47,1.06,1.06,1.06Z"/>
    <path class="st0" d="M412.22,879.44h1.41c.58,0,1.06-.47,1.06-1.06s-.47-1.06-1.06-1.06h-1.41c-.58,0-1.06.47-1.06,1.06s.47,1.06,1.06,1.06Z"/>
    <path class="st0" d="M468.63,879.44h1.41c.58,0,1.06-.47,1.06-1.06s-.47-1.06-1.06-1.06h-1.41c-.58,0-1.06.47-1.06,1.06s.47,1.06,1.06,1.06Z"/>
    <path class="st0" d="M372.73,891.99h1.41c.58,0,1.06-.47,1.06-1.06s-.47-1.06-1.06-1.06h-1.41c-.58,0-1.06.47-1.06,1.06s.47,1.06,1.06,1.06Z"/>
    <path class="st0" d="M406.58,891.99h1.41c.58,0,1.06-.47,1.06-1.06s-.47-1.06-1.06-1.06h-1.41c-.58,0-1.06.47-1.06,1.06s.47,1.06,1.06,1.06Z"/>
    <path class="st0" d="M417.86,891.99h1.41c.58,0,1.06-.47,1.06-1.06s-.47-1.06-1.06-1.06h-1.41c-.58,0-1.06.47-1.06,1.06s.47,1.06,1.06,1.06Z"/>
    <path class="st0" d="M378.37,891.99h1.41c.58,0,1.06-.47,1.06-1.06s-.47-1.06-1.06-1.06h-1.41c-.58,0-1.06.47-1.06,1.06s.47,1.06,1.06,1.06Z"/>
    <path class="st0" d="M384.01,891.99h1.41c.58,0,1.06-.47,1.06-1.06s-.47-1.06-1.06-1.06h-1.41c-.58,0-1.06.47-1.06,1.06s.47,1.06,1.06,1.06Z"/>
    <path class="st0" d="M367.09,891.99h1.41c.58,0,1.06-.47,1.06-1.06s-.47-1.06-1.06-1.06h-1.41c-.58,0-1.06.47-1.06,1.06s.47,1.06,1.06,1.06Z"/>
    <path class="st0" d="M462.99,891.99h1.41c.58,0,1.06-.47,1.06-1.06s-.47-1.06-1.06-1.06h-1.41c-.58,0-1.06.47-1.06,1.06s.47,1.06,1.06,1.06Z"/>
    <path class="st0" d="M389.65,891.99h1.41c.58,0,1.06-.47,1.06-1.06s-.47-1.06-1.06-1.06h-1.41c-.58,0-1.06.47-1.06,1.06s.47,1.06,1.06,1.06Z"/>
    <path class="st0" d="M457.35,891.99h1.41c.58,0,1.06-.47,1.06-1.06s-.47-1.06-1.06-1.06h-1.41c-.58,0-1.06.47-1.06,1.06s.47,1.06,1.06,1.06Z"/>
    <path class="st0" d="M474.27,891.99h1.41c.58,0,1.06-.47,1.06-1.06s-.47-1.06-1.06-1.06h-1.41c-.58,0-1.06.47-1.06,1.06s.47,1.06,1.06,1.06Z"/>
    <path class="st0" d="M395.29,891.99h1.41c.58,0,1.06-.47,1.06-1.06s-.47-1.06-1.06-1.06h-1.41c-.58,0-1.06.47-1.06,1.06s.47,1.06,1.06,1.06Z"/>
    <path class="st0" d="M468.63,891.99h1.41c.58,0,1.06-.47,1.06-1.06s-.47-1.06-1.06-1.06h-1.41c-.58,0-1.06.47-1.06,1.06s.47,1.06,1.06,1.06Z"/>
    <path class="st0" d="M440.43,891.99h1.41c.58,0,1.06-.47,1.06-1.06s-.47-1.06-1.06-1.06h-1.41c-.58,0-1.06.47-1.06,1.06s.47,1.06,1.06,1.06Z"/>
    <path class="st0" d="M361.45,891.99h1.41c.58,0,1.06-.47,1.06-1.06s-.47-1.06-1.06-1.06h-1.41c-.58,0-1.06.47-1.06,1.06s.47,1.06,1.06,1.06Z"/>
    <path class="st0" d="M479.92,891.99h1.41c.58,0,1.06-.47,1.06-1.06s-.47-1.06-1.06-1.06h-1.41c-.58,0-1.06.47-1.06,1.06s.47,1.06,1.06,1.06Z"/>
    <path class="st0" d="M446.07,891.99h1.41c.58,0,1.06-.47,1.06-1.06s-.47-1.06-1.06-1.06h-1.41c-.58,0-1.06.47-1.06,1.06s.47,1.06,1.06,1.06Z"/>
    <path class="st0" d="M355.8,891.99h1.41c.58,0,1.06-.47,1.06-1.06s-.47-1.06-1.06-1.06h-1.41c-.58,0-1.06.47-1.06,1.06s.47,1.06,1.06,1.06Z"/>
    <path class="st0" d="M400.94,891.99h1.41c.58,0,1.06-.47,1.06-1.06s-.47-1.06-1.06-1.06h-1.41c-.58,0-1.06.47-1.06,1.06s.47,1.06,1.06,1.06Z"/>
    <path class="st0" d="M423.5,891.99h1.41c.58,0,1.06-.47,1.06-1.06s-.47-1.06-1.06-1.06h-1.41c-.58,0-1.06.47-1.06,1.06s.47,1.06,1.06,1.06Z"/>
    <path class="st0" d="M451.71,891.99h1.41c.58,0,1.06-.47,1.06-1.06s-.47-1.06-1.06-1.06h-1.41c-.58,0-1.06.47-1.06,1.06s.47,1.06,1.06,1.06Z"/>
    <path class="st0" d="M429.14,891.99h1.41c.58,0,1.06-.47,1.06-1.06s-.47-1.06-1.06-1.06h-1.41c-.58,0-1.06.47-1.06,1.06s.47,1.06,1.06,1.06Z"/>
    <path class="st0" d="M434.78,891.99h1.41c.58,0,1.06-.47,1.06-1.06s-.47-1.06-1.06-1.06h-1.41c-.58,0-1.06.47-1.06,1.06s.47,1.06,1.06,1.06Z"/>
    <path class="st0" d="M412.22,891.99h1.41c.58,0,1.06-.47,1.06-1.06s-.47-1.06-1.06-1.06h-1.41c-.58,0-1.06.47-1.06,1.06s.47,1.06,1.06,1.06Z"/>
    <path class="st0" d="M350.16,891.99h1.41c.58,0,1.06-.47,1.06-1.06s-.47-1.06-1.06-1.06h-1.41c-.58,0-1.06.47-1.06,1.06s.47,1.06,1.06,1.06Z"/>
    <path class="st0" d="M453.19,903.49c0,.58.47,1.06,1.06,1.06h1.41c.58,0,1.06-.47,1.06-1.06s-.47-1.06-1.06-1.06h-1.41c-.58,0-1.06.47-1.06,1.06Z"/>
    <path class="st0" d="M447.54,903.49c0,.58.47,1.06,1.06,1.06h1.41c.58,0,1.06-.47,1.06-1.06s-.47-1.06-1.06-1.06h-1.41c-.58,0-1.06.47-1.06,1.06Z"/>
    <path class="st0" d="M470.11,903.49c0,.58.47,1.06,1.06,1.06h1.41c.58,0,1.06-.47,1.06-1.06s-.47-1.06-1.06-1.06h-1.41c-.58,0-1.06.47-1.06,1.06Z"/>
    <path class="st0" d="M441.9,903.49c0,.58.47,1.06,1.06,1.06h1.41c.58,0,1.06-.47,1.06-1.06s-.47-1.06-1.06-1.06h-1.41c-.58,0-1.06.47-1.06,1.06Z"/>
    <path class="st0" d="M458.83,903.49c0,.58.47,1.06,1.06,1.06h1.41c.58,0,1.06-.47,1.06-1.06s-.47-1.06-1.06-1.06h-1.41c-.58,0-1.06.47-1.06,1.06Z"/>
    <path class="st0" d="M475.75,903.49c0,.58.47,1.06,1.06,1.06h1.41c.58,0,1.06-.47,1.06-1.06s-.47-1.06-1.06-1.06h-1.41c-.58,0-1.06.47-1.06,1.06Z"/>
    <path class="st0" d="M464.47,903.49c0,.58.47,1.06,1.06,1.06h1.41c.58,0,1.06-.47,1.06-1.06s-.47-1.06-1.06-1.06h-1.41c-.58,0-1.06.47-1.06,1.06Z"/>
    <path class="st0" d="M393.2,904.54h35.86c.58,0,1.06-.47,1.06-1.06s-.47-1.06-1.06-1.06h-35.86c-.58,0-1.06.47-1.06,1.06s.47,1.06,1.06,1.06Z"/>
    <path class="st0" d="M355.8,904.54h1.41c.58,0,1.06-.47,1.06-1.06s-.47-1.06-1.06-1.06h-1.41c-.58,0-1.06.47-1.06,1.06s.47,1.06,1.06,1.06Z"/>
    <path class="st0" d="M361.45,904.54h1.41c.58,0,1.06-.47,1.06-1.06s-.47-1.06-1.06-1.06h-1.41c-.58,0-1.06.47-1.06,1.06s.47,1.06,1.06,1.06Z"/>
    <path class="st0" d="M378.37,904.54h1.41c.58,0,1.06-.47,1.06-1.06s-.47-1.06-1.06-1.06h-1.41c-.58,0-1.06.47-1.06,1.06s.47,1.06,1.06,1.06Z"/>
    <path class="st0" d="M372.73,904.54h1.41c.58,0,1.06-.47,1.06-1.06s-.47-1.06-1.06-1.06h-1.41c-.58,0-1.06.47-1.06,1.06s.47,1.06,1.06,1.06Z"/>
    <path class="st0" d="M389.65,904.54h1.41c.58,0,1.06-.47,1.06-1.06s-.47-1.06-1.06-1.06h-1.41c-.58,0-1.06.47-1.06,1.06s.47,1.06,1.06,1.06Z"/>
    <path class="st0" d="M350.16,904.54h1.41c.58,0,1.06-.47,1.06-1.06s-.47-1.06-1.06-1.06h-1.41c-.58,0-1.06.47-1.06,1.06s.47,1.06,1.06,1.06Z"/>
    <path class="st0" d="M367.09,904.54h1.41c.58,0,1.06-.47,1.06-1.06s-.47-1.06-1.06-1.06h-1.41c-.58,0-1.06.47-1.06,1.06s.47,1.06,1.06,1.06Z"/>
    <path class="st0" d="M384.01,904.54h1.41c.58,0,1.06-.47,1.06-1.06s-.47-1.06-1.06-1.06h-1.41c-.58,0-1.06.47-1.06,1.06s.47,1.06,1.06,1.06Z"/>
    <path class="st0" d="M451.64,794.72c.59.06,1.19.08,1.76.08,10.44,0,18.93-8.49,18.93-18.93s-8.49-18.93-18.93-18.93c-2.81,0-5.59.63-8.12,1.83-2.96-11.5-13.45-19.7-25.45-19.7-11.12,0-21.06,7.1-24.76,17.46-4.01-3.59-9.12-5.55-14.57-5.55-12.08,0-21.91,9.83-21.91,21.91,0,11.27,8.79,20.86,20.01,21.82,1.34.12,2.42.12,3.76,0l52.94.25h0c.26,0,.5-.09.68-.25h15.65ZM433.82,792.61c-.25,0-.49.09-.67.24l-50.83-.24h0s-.06,0-.09,0c-1.24.11-2.2.11-3.44,0-10.14-.87-18.08-9.53-18.08-19.72,0-10.92,8.88-19.8,19.8-19.8,5.44,0,10.52,2.17,14.29,6.11.26.27.65.39,1.02.29.37-.09.66-.37.76-.74,2.93-10.35,12.49-17.58,23.25-17.58,11.46,0,21.43,8.15,23.69,19.37.07.33.29.61.6.75.31.14.67.12.96-.04,2.53-1.44,5.4-2.2,8.32-2.2,9.27,0,16.82,7.54,16.82,16.82s-7.54,16.82-16.82,16.82c-.52,0-1.06-.03-1.61-.08-.03,0-.07,0-.1,0h-17.86Z"/>
    <path class="st0" d="M370.05,762.04c-.49.32-.62.97-.3,1.46.32.49.97.63,1.46.31.36-.24,8.97-5.72,17.12-.02.18.13.4.19.61.19.33,0,.66-.16.87-.45.34-.48.22-1.14-.26-1.47-9.34-6.54-19.4-.08-19.49-.02Z"/>
    <path class="st0" d="M425.7,745.43c-.53-.24-1.16-.01-1.4.52-.25.53-.01,1.16.52,1.4,2,.93,7.35,3.93,7.98,6.66.11.49.55.82,1.03.82.08,0,.16,0,.24-.03.57-.13.92-.7.79-1.27-.98-4.22-8.32-7.72-9.15-8.1Z"/>
    <path class="st0" d="M437.43,757.72c-.26-.52-.9-.73-1.42-.47-.52.26-.73.9-.47,1.42l2.36,4.72c.19.37.56.58.95.58.16,0,.32-.04.47-.11.52-.26.73-.9.47-1.42l-2.36-4.72Z"/>
    <path class="st0" d="M459.17,765.11c.29.1,7.09,2.55,5.5,12.11-.1.58.29,1.12.87,1.22.06,0,.12.01.18.01.51,0,.96-.37,1.04-.88,1.9-11.39-6.82-14.44-6.91-14.47-.56-.19-1.15.11-1.33.67-.19.55.11,1.15.66,1.34Z"/>
    <path class="st0" d="M492.66,811.85c0,5.11-4.16,9.27-9.27,9.27h-47.99v2.12h47.99c6.28,0,11.38-5.11,11.38-11.38v-85.57h-2.12v85.57Z"/>
    <path class="st0" d="M483.4,701.79h-138.25c-6.28,0-11.38,5.11-11.38,11.38v98.67c0,6.28,5.11,11.38,11.38,11.38h49.42v-2.12h-49.42c-5.11,0-9.27-4.16-9.27-9.27v-85.57h-1.06l-.43-2.03,1.48-.65v-10.43c0-3.44,1.88-6.43,4.67-8.04l-.49-.25.96-1.89,2.19,1.11c.63-.14,1.28-.21,1.95-.21h31.64v-1.06h2.12v1.06h104.5c5.11,0,9.27,4.16,9.27,9.27v10.99h2.12v-10.99c0-6.28-5.11-11.38-11.38-11.38Z"/>
    <polygon class="st0" points="378.9 724.17 378.9 725.22 376.78 725.22 376.78 724.17 339.85 724.17 360.27 715.18 357.84 713.94 335.87 723.6 334.39 724.25 334.82 726.28 335.87 726.28 492.66 726.28 494.78 726.28 494.78 724.17 492.66 724.17 378.9 724.17"/>
    <polygon class="st0" points="376.78 705.6 360.34 712.84 362.77 714.08 376.78 707.91 376.78 705.6"/>
    <polygon class="st0" points="378.9 706.07 378.9 706.98 379.24 706.83 378.9 706.07"/>
    <polygon class="st0" points="376.78 707.91 376.78 721.2 378.32 721.99 377.36 723.87 376.78 723.58 376.78 724.17 376.78 725.22 378.9 725.22 378.9 724.17 378.9 706.98 378.9 706.07 378.9 703.91 378.9 702.85 376.78 702.85 376.78 703.91 376.78 705.6 376.78 707.91"/>
    <rect class="st0" x="388.74" y="712.98" width="91.21" height="2.12"/>
    <polygon class="st0" points="360.27 715.18 376.78 723.58 377.36 723.87 378.32 721.99 376.78 721.2 362.77 714.08 360.34 712.84 343.2 704.12 341.01 703.01 340.05 704.89 340.54 705.14 357.84 713.94 360.27 715.18"/>
    <polygon class="st0" points="394.57 821.12 394.57 823.23 394.57 854.96 396.68 854.96 396.68 823.23 433.29 823.23 433.29 854.96 435.41 854.96 435.41 823.23 435.41 821.12 394.57 821.12"/>
    <polygon class="st0" points="396.68 854.96 394.57 854.96 371.59 854.96 371.59 857.08 394.57 857.08 435.41 857.08 459.19 857.08 459.19 854.96 435.41 854.96 433.29 854.96 396.68 854.96"/>
    <polygon class="st0" points="347.85 766.15 345.74 766.15 345.74 807.72 377.84 807.72 377.84 805.6 347.85 805.6 347.85 766.15"/>
    <polygon class="st0" points="481.83 735.87 482.89 735.87 482.89 734.82 461.52 734.82 461.52 736.93 481.83 736.93 481.83 735.87"/>
    <polygon class="st0" points="481.83 736.93 481.83 759.47 483.95 759.47 483.95 735.87 482.89 735.87 481.83 735.87 481.83 736.93"/>
    <rect class="st0" x="481.83" y="770.6" width="2.12" height="12.47"/>
    <rect class="st0" x="426.6" y="828.82" width="2.12" height="11.95"/>
    <rect class="st0" x="426.6" y="845.83" width="2.12" height="3.67"/>
  </g>
  <g>
    <path class="st0" d="M905.88,380.72c-5.96,0-11.85,1.44-17.11,4.18-5.39-23.42-26.47-40.27-50.66-40.27-22.56,0-42.66,14.76-49.5,36.11-8.08-7.78-18.63-12.05-29.9-12.05-23.8,0-43.17,19.36-43.17,43.17,0,10.87,4.06,21.26,11.43,29.25,7.32,7.94,17.27,12.82,27.99,13.74,2.67.23,4.79.23,7.45,0h29.28v-2.12h-29.33s-.06,0-.09,0c-2.56.22-4.57.22-7.13,0-21.02-1.81-37.48-19.77-37.48-40.89,0-22.64,18.42-41.05,41.05-41.05,11.29,0,21.81,4.5,29.64,12.67.26.27.65.39,1.02.29.37-.09.66-.37.76-.74,6.04-21.36,25.77-36.28,47.98-36.28,23.66,0,44.22,16.81,48.89,39.97.07.33.29.61.6.75.31.14.67.12.96-.04,5.26-3,11.25-4.59,17.33-4.59,19.32,0,35.03,15.72,35.03,35.03s-15.72,35.03-35.03,35.03c-1.08,0-2.2-.06-3.35-.16-.03,0-.06,0-.09,0l-16.34-.09v2.12l16.28.09c1.2.11,2.37.17,3.5.17,20.48,0,37.15-16.67,37.15-37.15s-16.67-37.15-37.15-37.15Z"/>
    <path class="st0" d="M738.19,390.83c-.49.32-.62.98-.3,1.46.2.31.54.48.89.48.2,0,.4-.06.58-.17.19-.12,18.68-11.99,35.78-.02.48.33,1.14.22,1.47-.26.34-.48.22-1.14-.26-1.47-18.26-12.78-37.96-.15-38.15-.02Z"/>
    <path class="st0" d="M848.63,359.29c.15.07,15.05,7.03,16.7,14.18.11.49.55.82,1.03.82.08,0,.16,0,.24-.03.57-.13.92-.7.79-1.27-1.88-8.16-17.23-15.33-17.88-15.63-.53-.24-1.16-.01-1.4.52-.24.53-.01,1.16.52,1.4Z"/>
    <path class="st0" d="M875.55,392.19c.19.37.56.58.95.58.16,0,.32-.04.47-.11.52-.26.73-.9.47-1.42l-4.77-9.54c-.26-.52-.9-.73-1.42-.47-.52.26-.73.9-.47,1.42l4.77,9.54Z"/>
    <path class="st0" d="M917.9,395.1c.62.21,15.19,5.38,11.81,25.65-.1.58.29,1.12.87,1.22.06,0,.12.01.18.01.51,0,.96-.37,1.04-.88,3.68-22.1-13.06-27.95-13.23-28.01-.55-.19-1.15.11-1.34.67-.19.55.11,1.15.66,1.34Z"/>
    <path class="st0" d="M777.51,557.99c0,.58.47,1.06,1.06,1.06s1.06-.47,1.06-1.06v-20.75c0-.58-.47-1.06-1.06-1.06s-1.06.47-1.06,1.06v20.75Z"/>
    <path class="st0" d="M778.74,527.48c.58,0,1.06-.47,1.06-1.06v-54.51c0-.58-.47-1.06-1.06-1.06s-1.06.47-1.06,1.06v54.51c0,.58.47,1.06,1.06,1.06Z"/>
    <path class="st0" d="M910.81,482.95c.58,0,1.06-.47,1.06-1.06v-12.79c0-.58-.47-1.06-1.06-1.06s-1.06.47-1.06,1.06v12.79c0,.58.47,1.06,1.06,1.06Z"/>
    <path class="st0" d="M898.72,538.69v-55.07c0-.58-.47-1.06-1.06-1.06s-1.06.47-1.06,1.06v55.07c0,.58.47,1.06,1.06,1.06s1.06-.47,1.06-1.06Z"/>
    <path class="st0" d="M867.97,457.72c.45,0,.84-.28,1-.7.15-.42.02-.89-.32-1.17l-28.39-23.45c-.39-.32-.96-.32-1.35,0l-28.39,23.45c-.34.28-.47.75-.32,1.17.15.42.55.7,1,.7h19.93v37.44h-19.93c-.45,0-.84.28-1,.7-.15.42-.02.89.32,1.17l28.39,23.46c.2.16.43.24.67.24s.48-.08.67-.24l28.39-23.46c.34-.28.47-.75.32-1.17-.15-.42-.55-.7-1-.7h-19.93v-37.44h19.93ZM846.99,497.28h18.04l-25.45,21.03-25.45-21.03h18.04c.58,0,1.06-.47,1.06-1.06v-39.56c0-.58-.47-1.06-1.06-1.06h-18.04l25.45-21.02,25.45,21.02h-18.04c-.58,0-1.06.47-1.06,1.06v39.56c0,.58.47,1.06,1.06,1.06Z"/>
    <path class="st0" d="M886.1,416.53c0-8.82-6.63-15.99-14.77-15.99h-64.86c-8.15,0-14.77,7.17-14.77,15.99v136.82c0,8.82,6.63,15.99,14.77,15.99h64.86c8.15,0,14.77-7.17,14.77-15.99v-136.82ZM883.98,553.35c0,7.65-5.68,13.87-12.66,13.87h-64.86c-6.98,0-12.66-6.22-12.66-13.87v-136.82c0-7.65,5.68-13.87,12.66-13.87h64.86c6.98,0,12.66,6.22,12.66,13.87v136.82Z"/>
    <path class="st0" d="M865.11,410.32h-52.43c-6.7,0-12.14,5.37-12.14,11.98v100.06c0,6.6,5.45,11.98,12.14,11.98h52.43c6.7,0,12.14-5.37,12.14-11.98v-100.06c0-6.6-5.45-11.98-12.14-11.98ZM875.14,522.36c0,5.44-4.5,9.86-10.03,9.86h-52.43c-5.53,0-10.03-4.42-10.03-9.86v-100.06c0-5.44,4.5-9.86,10.03-9.86h52.43c5.53,0,10.03,4.42,10.03,9.86v100.06Z"/>
    <path class="st0" d="M838.89,540.19c-6.11,0-11.09,4.97-11.09,11.09s4.97,11.09,11.09,11.09,11.09-4.97,11.09-11.09-4.97-11.09-11.09-11.09ZM838.89,560.25c-4.95,0-8.97-4.03-8.97-8.97s4.02-8.97,8.97-8.97,8.97,4.02,8.97,8.97-4.02,8.97-8.97,8.97Z"/>
    <path class="st0" d="M842.35,548.38c.07.16,1.58,3.85-1.3,6.52l1.44,1.55c4-3.7,1.89-8.7,1.8-8.91l-1.94.84Z"/>
    <rect class="st0" x="879.03" y="426.85" width="2.12" height="25.8"/>
    <rect class="st0" x="879.03" y="457.65" width="2.12" height="6.64"/>
    <rect class="st0" x="806.07" y="560.25" width="15.04" height="2.12"/>
  </g>
</svg>