<?xml version="1.0" encoding="UTF-8"?>
<svg width="600" height="500" viewBox="0 0 600 500" fill="none" xmlns="http://www.w3.org/2000/svg">
    <!-- Cloud -->
    <path d="M250,100 C250,80 270,60 300,60 C330,60 350,80 350,100 C350,120 330,140 300,140 C270,140 250,120 250,100" 
          fill="#2d3a2d" opacity="0.9"/>
    
    <!-- Main Building Structure -->
    <g transform="translate(300,250)">
        <!-- Base Platform -->
        <path d="M0,-50 L100,0 L0,50 L-100,0 Z" fill="#2d3a2d" opacity="0.8"/>
        
        <!-- Tower 1 -->
        <g transform="translate(-60,-30)">
            <path d="M0,0 L30,-15 L30,-45 L0,-30 Z" fill="#2d3a2d" opacity="0.9"/>
            <path d="M30,-15 L60,0 L60,-30 L30,-45 Z" fill="#2d3a2d" opacity="0.85"/>
            <path d="M0,0 L30,15 L60,0 L30,-15 Z" fill="#2d3a2d" opacity="0.95"/>
        </g>
        
        <!-- Tower 2 -->
        <g transform="translate(20,-50)">
            <path d="M0,0 L40,-20 L40,-60 L0,-40 Z" fill="#2d3a2d" opacity="0.9"/>
            <path d="M40,-20 L80,0 L80,-40 L40,-60 Z" fill="#2d3a2d" opacity="0.85"/>
            <path d="M0,0 L40,20 L80,0 L40,-20 Z" fill="#2d3a2d" opacity="0.95"/>
        </g>
        
        <!-- Connection Lines -->
        <path d="M-30,0 L30,-30 M50,-10 L90,-30" 
              stroke="#2d3a2d" stroke-width="2" opacity="0.6"/>
    </g>
    
    <!-- Tech Elements -->
    <g transform="translate(350,300)">
        <!-- Server Racks -->
        <g transform="translate(-20,-10)">
            <rect x="0" y="0" width="40" height="60" fill="#2d3a2d" opacity="0.8"/>
            <rect x="5" y="5" width="30" height="5" fill="#c2e6a5" opacity="0.9"/>
            <rect x="5" y="15" width="30" height="5" fill="#c2e6a5" opacity="0.9"/>
            <rect x="5" y="25" width="30" height="5" fill="#c2e6a5" opacity="0.9"/>
        </g>
        
        <!-- Circuit Pattern -->
        <path d="M-50,30 C-30,30 -20,40 0,40 C20,40 30,30 50,30" 
              stroke="#2d3a2d" stroke-width="2" opacity="0.6" fill="none"/>
    </g>
    
    <!-- Small Decorative Elements -->
    <circle cx="280" cy="150" r="5" fill="#2d3a2d" opacity="0.7"/>
    <circle cx="320" cy="180" r="3" fill="#2d3a2d" opacity="0.7"/>
    <circle cx="400" cy="160" r="4" fill="#2d3a2d" opacity="0.7"/>
</svg> 